<ttFont>
<head>
    <!-- Most of this table will be recalculated by the compiler -->
    <tableVersion value="1.0"/>
    <fontRevision value="4.00299"/>
    <checkSumAdjustment value="0xeadca7e"/>
    <magicNumber value="0x5f0f3cf5"/>
    <flags value="00000000 00000011"/>
    <unitsPerEm value="1000"/>
    <created value="Tue Mar  5 22:44:54 2019"/>
    <modified value="Tue Mar  5 22:44:54 2019"/>
    <xMin value="-539"/>
    <yMin value="-582"/>
    <xMax value="2603"/>
    <yMax value="1077"/>
    <macStyle value="00000000 00000010"/>
    <lowestRecPPEM value="3"/>
    <fontDirectionHint value="2"/>
    <indexToLocFormat value="0"/>
    <glyphDataFormat value="0"/>
  </head>
          <CharString index="0">
            -2 hlineto
            -106 callsubr
            return
          </CharString>
          <CharString index="1">
            -46 callsubr
            -100 callgsubr
            return
          </CharString>
          <CharString index="2">
            -104 callgsubr
            101 hlineto
            return
          </CharString>
          <CharString index="3">
            rmoveto
            -79 -51 54 90 16 hvcurveto
            -102 callsubr
            -37 callgsubr
            rlinecurve
            return
          </CharString>
          <CharString index="4">
            -127 -22 63 -95 136 411 callgsubr
            517 callgsubr
            return
          </CharString>
          <CharString index="5">
            87 15 72 54 76 hhcurveto
            97 29 -74 -68 -12 hvcurveto
            -1 -6 return
          </CharString>
          <CharString index="6">
            hvcurveto
            -107 callsubr
            return
          </CharString>
          <CharString index="7">
            473 hlineto
            -105 callsubr
            return
          </CharString>
          <CharString index="8">
            -111 161 -94 callsubr
            return
          </CharString>
          <CharString index="9">
            rmoveto
            -88 72 callgsubr
            101 605 callgsubr
            -60 -75 -101 hhcurveto
            return
          </CharString>
          <CharString index="10">
            115 -77 callgsubr
            return
          </CharString>
          <CharString index="11">
            -135 -112 -170 -30 hvcurveto
            451 -2 rmoveto
            -119 -21 -93 -67 -86 hhcurveto
            -85 -70 69 119 21 hvcurveto
            119 21 94 64 85 hhcurveto
            86 69 -67 -118 -21 hvcurveto
            return
          </CharString>
          <CharString index="12">
            -98 callgsubr
            endchar
          </CharString>
          <CharString index="13">
            hhcurveto
            10 8 178 callsubr
            -97 callgsubr
            return
          </CharString>
          <CharString index="14">
            105 -86 callgsubr
            return
          </CharString>
          <CharString index="15">
            hhcurveto
            10 8 1 1 12 hvcurveto
            -86 callsubr
            return
          </CharString>
          <CharString index="16">
            -141 -26 69 -87 callsubr
            return
          </CharString>
          <CharString index="17">
            337 464 rmoveto
            85 58 -54 -91 -14 hvcurveto
            -306 hlineto
            91 25 73 54 79 hhcurveto
            205 -300 rmoveto
            -123 hlineto
            -43 -28 -45 -34 -70 hhcurveto
            -85 -57 57 93 11 hvcurveto
            421 hlineto
            6 19 5 18 3 17 rrcurveto
            return
          </CharString>
          <CharString index="18">
            -90 -16 -66 -51 -72 hhcurveto
            -13 -14 1 3 -10 hvcurveto
            -14 -83 rlineto
            -5 19 21 -2 22 hhcurveto
            120 101 79 146 27 hvcurveto
            return
          </CharString>
          <CharString index="19">
            218 callgsubr
            170 callgsubr
            117 173 callgsubr
            return
          </CharString>
          <CharString index="20">
            -111 161 -92 callsubr
            return
          </CharString>
          <CharString index="21">
            -97 callgsubr
            -79 callgsubr
            return
          </CharString>
          <CharString index="22">
            206 -84 callsubr
            return
          </CharString>
          <CharString index="23">
            178 -102 callgsubr
            return
          </CharString>
          <CharString index="24">
            hhcurveto
            -138 -82 99 153 27 hvcurveto
            153 27 117 98 138 hhcurveto
            83 60 -35 -70 25 hvcurveto
            137 hlineto
            136 -29 -113 73 -145 hhcurveto
            -196 -184 -147 -208 -37 hvcurveto
            return
          </CharString>
          <CharString index="25">
            16 88 rlineto
            return
          </CharString>
          <CharString index="26">
            -156 hlineto
            -143 -112 -75 -117 -88 64 -56 97 88 82 42 48 37 hvcurveto
            -161 9 rmoveto
            -56 -31 28 42 44 41 42 80 hvcurveto
            156 -3 hlineto
            -106 -19 -102 -47 -69 hhcurveto
            endchar
          </CharString>
          <CharString index="27">
            hhcurveto
            164 117 105 156 27 hvcurveto
            -100 hlineto
            -100 -17 -77 -70 -103 hhcurveto
            -100 -60 67 95 17 hvcurveto
            return
          </CharString>
          <CharString index="28">
            -142 -26 callsubr
            return
          </CharString>
          <CharString index="29">
            -85 -15 -73 -38 -61 hhcurveto
            -84 -46 57 85 15 hvcurveto
            97 17 83 49 95 hhcurveto
            157 hlineto
            34 191 rlineto
            return
          </CharString>
          <CharString index="30">
            324 callgsubr
            55 46 hvcurveto
            -34 -197 6 callgsubr
            return
          </CharString>
          <CharString index="31">
            -153 -26 103 -104 160 -71 callsubr
            return
          </CharString>
          <CharString index="32">
            -65 callsubr
            15 88 rlineto
            return
          </CharString>
          <CharString index="33">
            -124 -22 68 -87 123 hhcurveto
            128 -1 88 348 callgsubr
            14 76 rcurveline
            return
          </CharString>
          <CharString index="34">
            -115 -20 100 -35 79 -71 callgsubr
            return
          </CharString>
          <CharString index="35">
            rmoveto
            -243 -122 -15 -84 241 109 rlineto
            return
          </CharString>
          <CharString index="36">
            -56 callgsubr
            94 55 106 hhcurveto
            111 hlineto
            return
          </CharString>
          <CharString index="37">
            24 -72 98 -122 hhcurveto
            -80 -60 -39 -53 -37 hvcurveto
            34 193 rlineto
            return
          </CharString>
          <CharString index="38">
            -141 -100 -97 -152 -7 hvcurveto
            104 hlineto
            87 50 71 83 63 37 -47 -70 -12 vhcurveto
            -101 -18 -95 -41 -99 hhcurveto
            -144 hlineto
            525 callsubr
            return
          </CharString>
          <CharString index="39">
            6 1 8 1 6 vhcurveto
            46 8 39 29 45 hhcurveto
            50 30 -37 -52 -9 hvcurveto
            -74 -14 -74 -47 -89 hhcurveto
            -130 -63 83 114 20 hvcurveto
            135 23 112 67 124 hhcurveto
            return
          </CharString>
          <CharString index="40">
            72 callsubr
            51 callgsubr
            return
          </CharString>
          <CharString index="41">
            5 callgsubr
            315 callgsubr
            return
          </CharString>
          <CharString index="42">
            134 -70 callsubr
            460 hlineto
            return
          </CharString>
          <CharString index="43">
            364 callgsubr
            -32 -184 -20 40 -41 30 -71 1 rlinecurve
            -108 2 -96 -75 -20 -120 -13 -75 19 -63 41 -38 rrcurveto
            -44 -31 -52 -39 -74 hhcurveto
            return
          </CharString>
          <CharString index="44">
            hlineto
            -16 -52 callsubr
            return
          </CharString>
          <CharString index="45">
            hlineto
            -3 callgsubr
            return
          </CharString>
          <CharString index="46">
            -81 -14 -46 2 callsubr
            143 125 71 151 28 hvcurveto
            97 callsubr
            return
          </CharString>
          <CharString index="47">
            40 14 -45 54 hhcurveto
            58 51 38 79 25 hvcurveto
            -64 hlineto
            -29 -9 -20 -13 -22 hhcurveto
            return
          </CharString>
          <CharString index="48">
            rmoveto
            -79 -51 54 90 16 hvcurveto
            return
          </CharString>
          <CharString index="49">
            -67 callgsubr
            107 19 82 53 111 hhcurveto
            return
          </CharString>
          <CharString index="50">
            -58 callgsubr
            -58 -334 -75 callgsubr
            return
          </CharString>
          <CharString index="51">
            466 callsubr
            -77 -74 -105 -19 hvcurveto
            122 callgsubr
            -1 13 1 12 2 11 rrcurveto
            58 11 38 56 callgsubr
            -84 hlineto
            -115 -99 -63 -120 -22 hvcurveto
            -111 -19 67 -74 117 hhcurveto
            return
          </CharString>
          <CharString index="52">
            131 -18 callsubr
            return
          </CharString>
          <CharString index="53">
            15 88 rlineto
            return
          </CharString>
          <CharString index="54">
            rmoveto
            33 31 26 34 6 hvcurveto
            33 6 -22 27 -33 hhcurveto
            -34 -31 -27 -33 -6 hvcurveto
            -34 -6 22 -26 34 hhcurveto
            endchar
          </CharString>
          <CharString index="55">
            -88 rlineto
            274 195 callgsubr
            -111 -19 -65 -33 -82 hhcurveto
            -32 hlineto
            -26 -147 rlineto
            return
          </CharString>
          <CharString index="56">
            378 -1 130 -129 132 -112 -21 22 510 callgsubr
            90 961 hintmask 00011100
            90 695 rmoveto
            hintmask 00101100
            74 -696 128 1 247 526 rlineto
            hintmask 00011100
            54 -526 441 callsubr
            329 695 rlineto
            -122 hlineto
            hintmask 01001100
            -244 -563 -46 563 rlineto
            -128 hlineto
            hintmask 10001100
            -256 -566 -44 566 rlineto
            return
          </CharString>
          <CharString index="57">
            56 callsubr
            177 callsubr
            -89 -43 46 67 10 hvcurveto
            -104 hlineto
            -116 -18 89 -77 148 hhcurveto
            return
          </CharString>
          <CharString index="58">
            29 callgsubr
            183 callgsubr
            return
          </CharString>
          <CharString index="59">
            51 -34 callsubr
            return
          </CharString>
          <CharString index="60">
            vstem
            253 652 rmoveto
            -68 callgsubr
            return
          </CharString>
          <CharString index="61">
            66 -8 -42 69 -104 hhcurveto
            -121 -102 -78 -150 -26 hvcurveto
            return
          </CharString>
          <CharString index="62">
            -28 63 hhcurveto
            29 30 6 9 25 hvcurveto
            13 73 rlineto
            -9 -25 -25 -5 -19 hhcurveto
            -34 -18 18 28 5 hvcurveto
            5 24 17 20 47 22 return
          </CharString>
          <CharString index="63">
            299 -7 callgsubr
            return
          </CharString>
          <CharString index="64">
            652 -91 callgsubr
            return
          </CharString>
          <CharString index="65">
            -71 -11 13 callsubr
            return
          </CharString>
          <CharString index="66">
            -167 -28 109 -82 145 6 callsubr
            return
          </CharString>
          <CharString index="67">
            rmoveto
            -54 callsubr
            return
          </CharString>
          <CharString index="68">
            34 276 rmoveto
            -173 -31 93 -112 158 hhcurveto
            135 101 75 108 50 hvcurveto
            -123 hlineto
            -57 -31 -47 -30 -68 hhcurveto
            -92 -49 68 121 21 hvcurveto
            120 21 73 68 92 hhcurveto
            68 38 -34 -53 10 hvcurveto
            123 hlineto
            116 -11 -76 67 -135 hhcurveto
            -158 -132 -112 -172 -30 hvcurveto
            return
          </CharString>
          <CharString index="69">
            -9 96 -96 99 -69 -21 237 82 -82 314 -90 99 -96 96 375 callgsubr
            342 106 -106 564 hintmask 1001001110000000
            800 464 rmoveto
            90 58 -57 -88 -13 hvcurveto
            -326 hlineto
            88 29 80 57 82 hhcurveto
            210 -300 rmoveto
            -124 hlineto
            -44 -26 -51 -33 -76 hhcurveto
            -73 -70 51 99 5 hvcurveto
            439 hlineto
            6 19 5 18 3 17 rrcurveto
            hintmask 1001010101000000
            156 27 -86 113 -153 hhcurveto
            -78 -66 -24 -63 -64 hvcurveto
            hintmask 1000100101000000
            13 78 rlineto
            -107 hlineto
            hintmask 1001010101000000
            -13 -78 rlineto
            59 -35 -58 28 -78 hhcurveto
            -151 -135 -112 -170 -30 hvcurveto
            410 callsubr
            84 74 41 51 50 hvcurveto
            hintmask 0011010100000000
            -15 -83 rlineto
            107 hlineto
            hintmask 1001010100000000
            15 83 rlineto
            -53 29 66 -39 82 hhcurveto
            hintmask 1001001110000000
            128 98 77 96 48 hvcurveto
            hintmask 0101010110000000
            -859 114 rmoveto
            119 21 94 64 85 hhcurveto
            86 69 -67 -118 -21 hvcurveto
            -119 -21 -93 -67 -86 hhcurveto
            -85 -70 69 119 21 hvcurveto
            return
          </CharString>
          <CharString index="70">
            61 10 53 51 94 hhcurveto
            20 hlineto
            15 85 rlineto
            -22 hlineto
            -84 -25 40 69 12 hvcurveto
            16 91 rlineto
            return
          </CharString>
          <CharString index="71">
            419 callsubr
            -47 -64 return
          </CharString>
          <CharString index="72">
            -18 callgsubr
            470 callgsubr
            105 hlineto
            return
          </CharString>
          <CharString index="73">
            11 callgsubr
            -74 rlineto
            return
          </CharString>
          <CharString index="74">
            hhcurveto
            -62 callgsubr
            return
          </CharString>
          <CharString index="75">
            124 22 -92 50 -106 hhcurveto
            -44 hlineto
            -49 -41 18 54 9 hvcurveto
            return
          </CharString>
          <CharString index="76">
            -99 -47 63 91 16 hvcurveto
            14 83 99 4 return
          </CharString>
          <CharString index="77">
            hhcurveto
            67 54 27 44 38 hvcurveto
            -45 -257 7 callgsubr
            return
          </CharString>
          <CharString index="78">
            rmoveto
            -67 -48 45 81 14 hvcurveto
            77 14 61 45 67 hhcurveto
            86 25 -66 -58 -11 hvcurveto
            -59 -10 -48 -65 -83 hhcurveto
            return
          </CharString>
          <CharString index="79">
            -145 -135 -112 -170 -30 hvcurveto
            410 callsubr
            90 74 45 47 43 hvcurveto
            -16 -92 rlineto
            -110 -20 -75 -54 -88 hhcurveto
            -79 -54 39 57 -7 hvcurveto
            -113 hlineto
            -122 -8 96 -73 147 hhcurveto
            172 117 113 150 27 hvcurveto
            return
          </CharString>
          <CharString index="80">
            hhcurveto
            -154 -116 -99 -141 -22 hvcurveto
            -142 -23 93 -99 149 return
          </CharString>
          <CharString index="81">
            -26 79 -93 122 -59 callgsubr
            return
          </CharString>
          <CharString index="82">
            264 callsubr
            38 215 rlineto
            return
          </CharString>
          <CharString index="83">
            120 callgsubr
            174 hlineto
            return
          </CharString>
          <CharString index="84">
            -27 callsubr
            hhcurveto
            return
          </CharString>
          <CharString index="85">
            80 78 135 24 hvcurveto
            return
          </CharString>
          <CharString index="86">
            -18 -106 77 -44 84 -3 rrcurveto
            56 hlineto
            81 37 -37 -59 -10 hvcurveto
            -47 -8 -39 -39 -72 hhcurveto
            -82 -35 46 56 3 hvcurveto
            return
          </CharString>
          <CharString index="87">
            -69 -35 -49 -64 -14 -81 rrcurveto
            -128 -23 76 -101 148 46 callgsubr
            return
          </CharString>
          <CharString index="88">
            57 callgsubr
            hintmask 11101000
            -60 callsubr
            hintmask 11011000
            27 callgsubr
          </CharString>
          <CharString index="89">
            82 87 127 15 hvcurveto
            return
          </CharString>
          <CharString index="90">
            216 callsubr
            313 rlineto
            return
          </CharString>
          <CharString index="91">
            -103 callsubr
            24 132 rlineto
            return
          </CharString>
          <CharString index="92">
            hlineto
            -11 -62 rlineto
            25 callsubr
            return
          </CharString>
          <CharString index="93">
            145 hhcurveto
            27 hlineto
            585 callsubr
            return
          </CharString>
          <CharString index="94">
            -94 -17 -61 -63 -112 hhcurveto
            return
          </CharString>
          <CharString index="95">
            111 20 -80 62 -104 hhcurveto
            -112 -101 -66 -112 -19 hvcurveto
            -17 -95 55 -58 70 -21 -90 -42 -92 -48 -19 -110 rrcurveto
            -98 -18 60 -69 106 hhcurveto
            76 50 41 29 21 hvcurveto
            return
          </CharString>
          <CharString index="96">
            hhcurveto
            -45 hlineto
            -11 -68 rlineto
            47 hlineto
            82 43 -5 -158 60 hvcurveto
            73 -77 -30 2 -98 hhcurveto
            -43 hlineto
            -12 -67 rlineto
            45 hlineto
            return
          </CharString>
          <CharString index="97">
            316 callgsubr
            187 hlineto
            -41 -231 rlineto
            -236 hlineto
            359 callgsubr
            return
          </CharString>
          <CharString index="98">
            37 34 28 37 7 hvcurveto
            return
          </CharString>
          <CharString index="99">
            rmoveto
            -93 -68 61 103 19 165 callgsubr
            20 26 221 -217 rcurveline
            -24 -31 -41 -16 -48 hhcurveto
            return
          </CharString>
          <CharString index="100">
            rmoveto
            -67 -12 42 -42 60 hhcurveto
            61 55 42 67 12 hvcurveto
            68 12 -40 42 -61 hhcurveto
            -60 -57 -42 -68 -12 hvcurveto
            161 1 rmoveto
            -30 -5 -27 -21 -29 hhcurveto
            -28 -19 21 30 5 hvcurveto
            31 6 26 20 28 hhcurveto
            29 20 -20 -31 -6 hvcurveto
            return
          </CharString>
          <CharString index="101">
            206 callsubr
            438 hlineto
            return
          </CharString>
          <CharString index="102">
            rmoveto
            -118 -59 68 111 21 hvcurveto
            2 1 2 1 3 vhcurveto
            124 7 74 66 21 122 15 80 rcurveline
            134 callsubr
            return
          </CharString>
          <CharString index="103">
            83 rlineto
            -20 hlineto
            -111 return
          </CharString>
          <CharString index="104">
            18 callgsubr
            -92 295 return
          </CharString>
          <CharString index="105">
            rmoveto
            -53 -37 263 callsubr
            return
          </CharString>
          <CharString index="106">
            25 143 rlineto
            -21 12 39 -52 94 hhcurveto
            113 68 66 85 15 hvcurveto
            8 45 -9 35 -18 25 return
          </CharString>
          <CharString index="107">
            rmoveto
            63 11 57 37 56 hhcurveto
            61 40 -41 -60 -11 hvcurveto
            -9 -52 -39 -34 -51 -28 -78 3 -48 44 11 68 rrcurveto
            180 -617 rmoveto
            return
          </CharString>
          <CharString index="108">
            527 callsubr
            10 callgsubr
            return
          </CharString>
          <CharString index="109">
            143 callsubr
            13 hvcurveto
            17 98 rlineto
            75 hlineto
            return
          </CharString>
          <CharString index="110">
            -30 callgsubr
            52 108 return
          </CharString>
          <CharString index="111">
            80 4 -60 91 -141 hhcurveto
            -18 -18 -1 -3 -17 hvcurveto
            -32 591 callsubr
            34 rrcurveto
            53 9 48 18 49 hhcurveto
            180 hlineto
            endchar
          </CharString>
          <CharString index="112">
            139 -139 477 return
          </CharString>
          <CharString index="113">
            hhcurveto
            27 hlineto
            249 callgsubr
            140 hlineto
            59 callsubr
            return
          </CharString>
          <CharString index="114">
            295 callgsubr
            -67 -127 -23 hvcurveto
            return
          </CharString>
          <CharString index="115">
            55 hlineto
            35 20 -7 -30 -6 hvcurveto
            -30 -5 -22 -7 -35 hhcurveto
            -109 hlineto
            -13 -72 rlineto
            132 hlineto
            71 63 41 68 12 hvcurveto
            69 13 -50 36 -74 hhcurveto
            return
          </CharString>
          <CharString index="116">
            -46 460 callgsubr
            -96 123 callgsubr
            return
          </CharString>
          <CharString index="117">
            -158 -28 91 -99 165 hhcurveto
            112 82 62 75 return
          </CharString>
          <CharString index="118">
            -26 51 71 12 hvcurveto
            return
          </CharString>
          <CharString index="119">
            77 18 53 71 93 hhcurveto
            76 46 -56 -84 -15 hvcurveto
            return
          </CharString>
          <CharString index="120">
            -39 -53 -67 hhcurveto
            -71 return
          </CharString>
          <CharString index="121">
            rmoveto
            -114 hlineto
            -91 -518 -252 518 203 callsubr
            -123 -696 -24 callgsubr
            92 519 251 -519 -24 callgsubr
            return
          </CharString>
          <CharString index="122">
            146 695 rmoveto
            -123 -695 -24 callgsubr
            420 callsubr
            return
          </CharString>
          <CharString index="123">
            163 callsubr
            443 callgsubr
            return
          </CharString>
          <CharString index="124">
            -173 -31 98 -112 158 hhcurveto
            135 100 77 96 48 hvcurveto
            return
          </CharString>
          <CharString index="125">
            -39 64 90 16 hvcurveto
            return
          </CharString>
          <CharString index="126">
            14 1 95 -95 197 74 96 283 95 hstemhm
            109 112 278 101 hintmask 10111100
            185 198 rmoveto
            hintmask 01111100
            -105 hlineto
            hintmask 10111100
            -104 -9 54 -93 151 hhcurveto
            191 75 131 246 43 hvcurveto
            239 42 -40 129 -188 hhcurveto
            -153 -106 -96 -145 -26 hvcurveto
            -154 -27 90 -79 128 hhcurveto
            66 68 25 46 41 hvcurveto
            -186 -33 -57 -61 -91 hhcurveto
            -76 -36 37 65 -2 hvcurveto
            157 170 rmoveto
            -101 -30 65 75 13 hvcurveto
            84 15 61 59 85 hhcurveto
            83 44 -53 -93 -17 hvcurveto
            -82 -14 -58 -55 -81 hhcurveto
            endchar
          </CharString>
          <CharString index="127">
            hintmask 10110000
            -15 callgsubr
            hintmask 01110000
            226 callgsubr
            return
          </CharString>
          <CharString index="128">
            61 -25 -70 30 -101 hhcurveto
            -170 hlineto
            -125 -106 -63 -130 -23 hvcurveto
            -127 -22 87 -79 114 hhcurveto
            111 96 70 116 20 84 callgsubr
            41 hlineto
            return
          </CharString>
          <CharString index="129">
            337 callgsubr
            104 402 callsubr
            -707 -105 callgsubr
            191 209 callgsubr
            -105 -19 -63 -28 -88 hhcurveto
            return
          </CharString>
          <CharString index="130">
            318 callgsubr
            -82 -15 hvcurveto
            -10 -58 26 -39 40 -23 -20 callsubr
            417 callgsubr
            274 callsubr
            4 callsubr
          </CharString>
          <CharString index="131">
            -139 -89 -101 -132 -3 hvcurveto
            95 hlineto
            81 -1 43 62 77 hhcurveto
            59 27 -43 -54 -10 hvcurveto
            -108 -18 -101 -26 -104 hhcurveto
            -94 hlineto
            return
          </CharString>
          <CharString index="132">
            -110 -20 -66 96 callsubr
            return
          </CharString>
          <CharString index="133">
            91 callsubr
            -228 hlineto
            -130 567 callsubr
          </CharString>
          <CharString index="134">
            103 callgsubr
            -169 -30 117 -113 175 hhcurveto
            152 104 78 396 callgsubr
            99 17 -61 69 -99 hhcurveto
            return
          </CharString>
          <CharString index="135">
            -159 -268 rlineto
            118 hlineto
            480 810 rlineto
            -118 hlineto
            -235 -420 -81 420 rlineto
            return
          </CharString>
          <CharString index="136">
            60 callsubr
            140 return
          </CharString>
          <CharString index="137">
            79 -23 -61 52 -97 hhcurveto
            -126 -113 -90 -140 -25 hvcurveto
            -137 -24 85 -90 127 hhcurveto
            99 83 55 78 40 hvcurveto
            return
          </CharString>
          <CharString index="138">
            rmoveto
            -168 hlineto
            35 195 rlineto
            167 hlineto
            return
          </CharString>
          <CharString index="139">
            114 -74 callgsubr
            return
          </CharString>
          <CharString index="140">
            99 0 87 206 105 205 92 hstem
            580 118 vstem
            385 695 rmoveto
            -228 hlineto
            -53 -297 rlineto
            -76 hlineto
            -19 -105 rlineto
            77 hlineto
            -52 -293 rlineto
            228 hlineto
            223 168 131 214 38 hvcurveto
            215 38 -121 135 -223 hhcurveto
            -107 -608 rmoveto
            -113 hlineto
            36 206 rlineto
            178 hlineto
            19 105 rlineto
            -178 hlineto
            36 205 rlineto
            113 hlineto
            163 70 -99 -159 -28 hvcurveto
            -158 -28 -105 -100 -163 hhcurveto
            endchar
          </CharString>
          <CharString index="141">
            -40 40 callgsubr
            return
          </CharString>
          <CharString index="142">
            83 hhcurveto
            53 hlineto
            15 85 rlineto
            -72 hlineto
            return
          </CharString>
          <CharString index="143">
            652 93 callsubr
            return
          </CharString>
          <CharString index="144">
            89 callsubr
            174 hlineto
            33 182 rlineto
            return
          </CharString>
          <CharString index="145">
            -32 callgsubr
            441 callgsubr
            return
          </CharString>
          <CharString index="146">
            105 60 callgsubr
            return
          </CharString>
          <CharString index="147">
            522 hmoveto
            97 551 203 callsubr
            -55 -314 rlineto
            return
          </CharString>
          <CharString index="148">
            -106 -63 -67 -68 -31 -101 callsubr
            return
          </CharString>
          <CharString index="149">
            hhcurveto
            72 56 28 45 39 hvcurveto
            -45 -259 481 callgsubr
          </CharString>
          <CharString index="150">
            hhcurveto
            34 hlineto
            14 44 callsubr
            18 hvcurveto
            107 18 76 53 91 hhcurveto
            85 22 -36 -29 8 hvcurveto
            return
          </CharString>
          <CharString index="151">
            -4 callsubr
            -48 61 100 return
          </CharString>
          <CharString index="152">
            18 0 95 306 97 133 100 hstem
            468 110 vstem
            607 731 rmoveto
            -440 hlineto
            -74 -421 rlineto
            108 hlineto
            54 29 51 37 67 hhcurveto
            95 38 -54 -95 -17 hvcurveto
            -90 -16 -56 -67 -98 hhcurveto
            -77 -45 40 62 -4 hvcurveto
            -111 hlineto
            -114 -3 72 -83 150 hhcurveto
            169 103 110 145 25 hvcurveto
            110 20 -32 133 -179 hhcurveto
            -65 -64 -30 -36 -33 hvcurveto
            35 199 rlineto
            335 hlineto
            endchar
          </CharString>
          <CharString index="153">
            -119 164 callsubr
            return
          </CharString>
          <CharString index="154">
            13 callgsubr
            -65 callsubr
            16 88 rlineto
            -945 -105 callgsubr
            384 hlineto
            -39 callgsubr
            return
          </CharString>
          <CharString index="155">
            9 callsubr
            -18 311 callsubr
            -4 37 rrcurveto
            return
          </CharString>
          <CharString index="156">
            rmoveto
            -55 -308 rlineto
            113 hlineto
            58 325 rlineto
            154 27 -83 81 -129 hhcurveto
            -66 -66 -27 -46 -45 hvcurveto
            return
          </CharString>
          <CharString index="157">
            77 callsubr
            -79 -46 38 73 15 hvcurveto
            return
          </CharString>
          <CharString index="158">
            -54 -36 37 59 11 253 callsubr
            return
          </CharString>
          <CharString index="159">
            563 606 rmoveto
            16 89 rlineto
            -458 hlineto
            -18 -99 rlineto
            322 hlineto
            -411 -507 -16 -89 rlineto
            458 hlineto
            18 99 rlineto
            -323 hlineto
            return
          </CharString>
          <CharString index="160">
            -62 callsubr
            418 hlineto
            -18 -101 rlineto
            -62 hlineto
            -149 -130 -71 -158 -28 hvcurveto
            return
          </CharString>
          <CharString index="161">
            71 callgsubr
            79 -105 144 hhcurveto
            return
          </CharString>
          <CharString index="162">
            75 13 54 30 44 hhcurveto
            51 39 -44 -84 -15 hvcurveto
            return
          </CharString>
          <CharString index="163">
            hhcurveto
            39 hlineto
            65 55 -23 -72 -13 hvcurveto
            return
          </CharString>
          <CharString index="164">
            rmoveto
            202 callsubr
            -37 callsubr
            341 hlineto
            -20 -110 rlineto
            hintmask 1100011010000000
            -75 -15 -69 -50 -18 -102 428 callsubr
            hintmask 1011010110000000
            55 callsubr
            hintmask 1010111010000000
            121 callgsubr
            return
          </CharString>
          <CharString index="165">
            hhcurveto
            90 hlineto
            17 95 rlineto
            -70 hlineto
            -48 -13 17 41 7 hvcurveto
            54 305 rlineto
            134 hlineto
            16 93 rlineto
            -133 hlineto
            24 137 rlineto
            endchar
          </CharString>
          <CharString index="166">
            -71 78 callsubr
            return
          </CharString>
          <CharString index="167">
            rmoveto
            -89 -45 227 callsubr
            return
          </CharString>
          <CharString index="168">
            -100 callsubr
            57 323 rlineto
            return
          </CharString>
          <CharString index="169">
            592 callsubr
            59 11 hvcurveto
            61 11 50 -34 callsubr
            -73 183 callgsubr
            return
          </CharString>
          <CharString index="170">
            513 callgsubr
            366 hlineto
            15 85 rlineto
            return
          </CharString>
          <CharString index="171">
            rmoveto
            127 callgsubr
            438 callsubr
            73 385 callsubr
            185 hlineto
            456 callsubr
            581 callsubr
            255 -191 rmoveto
            3 callgsubr
            -685 -62 callsubr
            170 -15 callsubr
            -2 -16 -1 -3 rcurveline
            return
          </CharString>
          <CharString index="172">
            -74 callsubr
            161 hlineto
            -13 -73 236 callsubr
            return
          </CharString>
          <CharString index="173">
            -44 10 95 531 97 hstem
            446 115 vstem
            16 93 rmoveto
            -15 -83 rlineto
            486 hlineto
            17 95 rlineto
            -317 hlineto
            136 107 204 135 30 171 rrcurveto
            126 22 -68 89 -148 hhcurveto
            -129 -116 -77 -158 -32 hvcurveto
            110 hlineto
            82 18 52 56 80 hhcurveto
            85 24 -52 -71 -12 hvcurveto
            -24 -137 -205 -132 -198 -151 rrcurveto
            endchar
          </CharString>
          <CharString index="174">
            15 83 rlineto
            -365 hlineto
            -15 -83 482 callgsubr
            return
          </CharString>
          <CharString index="175">
            -62 callsubr
            319 hlineto
            567 callgsubr
            -44 -8 291 callgsubr
            return
          </CharString>
          <CharString index="176">
            -189 hlineto
            35 198 rlineto
            337 209 callgsubr
            -100 -18 -63 -36 -91 hhcurveto
            return
          </CharString>
          <CharString index="177">
            11 64 452 callsubr
            114 hlineto
            55 311 rlineto
            -3 vlineto
            return
          </CharString>
          <CharString index="178">
            -15 -82 374 callgsubr
            97 551 280 callgsubr
            return
          </CharString>
          <CharString index="179">
            -105 callgsubr
            319 hlineto
            return
          </CharString>
          <CharString index="180">
            288 callgsubr
            hintmask 11001011
            -11 callgsubr
            hintmask 10110111
            153 callsubr
          </CharString>
          <CharString index="181">
            546 rmoveto
            -80 -59 -38 -53 -36 hvcurveto
            34 197 rlineto
            433 hlineto
            -11 -62 -16 -87 -45 -46 -73 -15 rlinecurve
            60 -17 -46 44 -84 hhcurveto
            433 callsubr
            return
          </CharString>
          <CharString index="182">
            111 43 -85 -83 -15 hvcurveto
            -5 -31 return
          </CharString>
          <CharString index="183">
            -96 callsubr
            endchar
          </CharString>
          <CharString index="184">
            38 35 callsubr
            return
          </CharString>
          <CharString index="185">
            -406 6 callgsubr
            return
          </CharString>
          <CharString index="186">
            144 94 84 144 24 hvcurveto
            -102 hlineto
            -87 -15 -54 -51 -82 hhcurveto
            -91 -44 59 101 19 hvcurveto
            67 383 rlineto
            269 hlineto
            -18 -102 -16 -86 -39 -35 -79 8 rlinecurve
            -16 -94 rlineto
            return
          </CharString>
          <CharString index="187">
            -110 -19 66 -75 117 hhcurveto
            123 80 78 162 callsubr
            151 hlineto
            return
          </CharString>
          <CharString index="188">
            88 0 87 516 92 hstem
            569 118 vstem
            373 695 rmoveto
            -227 hlineto
            -123 -695 rlineto
            227 hlineto
            223 169 131 214 38 hvcurveto
            215 38 -122 135 -223 hhcurveto
            -107 -608 rmoveto
            -113 hlineto
            91 516 rlineto
            113 hlineto
            164 70 -99 -159 -28 hvcurveto
            -158 -28 -105 -100 -164 hhcurveto
            return
          </CharString>
          <CharString index="189">
            269 261 rmoveto
            -72 callgsubr
            return
          </CharString>
          <CharString index="190">
            160 -2 101 102 25 142 return
          </CharString>
          <CharString index="191">
            54 callgsubr
            -722 hlineto
            -16 -88 rlineto
            309 181 callsubr
            return
          </CharString>
          <CharString index="192">
            173 callgsubr
            168 hlineto
            -66 112 callsubr
            endchar
          </CharString>
          <CharString index="193">
            714 104 rmoveto
            -118 -54 72 90 13 hvcurveto
            2 1 1 2 vvcurveto
            125 8 79 70 18 122 15 94 rcurveline
            185 hlineto
            -52 -295 rlineto
            -99 -23 -86 -67 -103 hhcurveto
            321 callsubr
            -1468 -63 callsubr
            return
          </CharString>
          <CharString index="194">
            76 13 65 55 84 hhcurveto
            37 hlineto
            70 callgsubr
            return
          </CharString>
          <CharString index="195">
            rmoveto
            -66 callsubr
            return
          </CharString>
          <CharString index="196">
            -32 callsubr
            178 callgsubr
            return
          </CharString>
          <CharString index="197">
            103 callsubr
            rlineto
            return
          </CharString>
          <CharString index="198">
            rmoveto
            32 callgsubr
            return
          </CharString>
          <CharString index="199">
            -47 callgsubr
            276 callsubr
            return
          </CharString>
          <CharString index="200">
            rlineto
            122 147 callgsubr
            return
          </CharString>
          <CharString index="201">
            26 0 251 -99 99 hstemhm
            21 585 hintmask 01100000
            383 152 rmoveto
            hintmask 10100000
            -27 -152 rlineto
            112 hlineto
            hintmask 01100000
            27 152 rlineto
            93 hlineto
            hintmask 10100000
            18 99 rlineto
            -93 hlineto
            82 469 rlineto
            -138 hlineto
            hintmask 01100000
            -421 -482 -15 -86 rlineto
            hintmask 10100000
            385 99 rmoveto
            -236 hlineto
            298 353 rlineto
            endchar
          </CharString>
          <CharString index="202">
            298 callgsubr
            232 callsubr
            return
          </CharString>
          <CharString index="203">
            -44 121 callsubr
            return
          </CharString>
          <CharString index="204">
            136 25 -84 81 -123 hhcurveto
            return
          </CharString>
          <CharString index="205">
            -91 callgsubr
            -867 9 callgsubr
            -24 -123 92 -78 146 -20 -158 -147 rcurveline
            108 224 callsubr
            109 hlineto
            -111 153 167 34 118 109 28 158 rlinecurve
            return
          </CharString>
          <CharString index="206">
            116 -77 callgsubr
            195 hlineto
            -115 -652 rlineto
            105 hlineto
            32 callgsubr
            return
          </CharString>
          <CharString index="207">
            302 callsubr
            127 -255 rmoveto
            153 132 93 154 27 hvcurveto
            84 callsubr
            359 callsubr
          </CharString>
          <CharString index="208">
            110 callsubr
            68 16 51 72 84 hhcurveto
            59 38 -33 -51 7 hvcurveto
            return
          </CharString>
          <CharString index="209">
            142 callsubr
            247.5 108 return
          </CharString>
          <CharString index="210">
            29 callsubr
            234 -215 return
          </CharString>
          <CharString index="211">
            hlineto
            -115 -652 rlineto
            return
          </CharString>
          <CharString index="212">
            -93 122 -59 callgsubr
            147 callsubr
            101 hlineto
            return
          </CharString>
          <CharString index="213">
            184 407 38 -407 514 callsubr
            268 551 rlineto
            -112 hlineto
            return
          </CharString>
          <CharString index="214">
            -72 16 callgsubr
            endchar
          </CharString>
          <CharString index="215">
            -24 -132 441 callsubr
            245 callgsubr
            return
          </CharString>
          <CharString index="216">
            rmoveto
            -229 hlineto
            172 327 rlineto
            endchar
          </CharString>
          <CharString index="217">
            89 callgsubr
            321 rlineto
            return
          </CharString>
          <CharString index="218">
            69 117 20 174 callgsubr
            return
          </CharString>
          <CharString index="219">
            -371 -98 callgsubr
            return
          </CharString>
          <CharString index="220">
            rmoveto
            -68 -386 rlineto
            -210 hlineto
            390 376 rmoveto
            269 360 callsubr
            -460 hlineto
            -506 -696 rlineto
            124 hlineto
            102 142 rlineto
            259 hlineto
            -25 -142 rlineto
            383 360 callsubr
            -269 hlineto
            39 219 rlineto
            239 -42 callgsubr
            -239 hlineto
            endchar
          </CharString>
          <CharString index="221">
            rmoveto
            -120 -52 71 104 10 hvcurveto
            128 8 78 82 21 116 550 callgsubr
            -88 -74 -109 hhcurveto
            -406 298 -58 callgsubr
            endchar
          </CharString>
          <CharString index="222">
            rmoveto
            -98 hlineto
            -114 -170 rlineto
            74 hlineto
            -39 170 rmoveto
            -99 hlineto
            -99 -170 rlineto
            74 hlineto
            endchar
          </CharString>
          <CharString index="223">
            52 294 rlineto
            113 20 58 35 84 hhcurveto
            29 hlineto
            21 118 rlineto
            -79 -62 -42 -64 -43 hvcurveto
            return
          </CharString>
          <CharString index="224">
            -62 callsubr
            388 hlineto
            -18 -106 rlineto
            -106 hlineto
            -94 -97 -35 -107 -18 hvcurveto
            return
          </CharString>
          <CharString index="225">
            85 14 68 56 80 hhcurveto
            81 45 -58 -82 -14 hvcurveto
            -81 -15 -65 -56 -81 hhcurveto
            return
          </CharString>
          <CharString index="226">
            85 -85 -48 callgsubr
            return
          </CharString>
          <CharString index="227">
            -75 -15 -69 -50 -18 -102 -6 -35 0 -34 5 -30 rrcurveto
            return
          </CharString>
          <CharString index="228">
            -111 239 callsubr
            -5 -18 return
          </CharString>
          <CharString index="229">
            87 hlineto
            -4 30 -1 31 5 27 rrcurveto
            return
          </CharString>
          <CharString index="230">
            95 17 51 69 83 hhcurveto
            return
          </CharString>
          <CharString index="231">
            -20 hstemhm
            55 805 hintmask 00101110
            55 551 rmoveto
            75 -551 514 callsubr
            hintmask 00110110
            106 callsubr
            hintmask 01001110
            -191 -441 -35 441 rlineto
            -119 hlineto
            hintmask 10001110
            -194 -443 -38 443 rlineto
            return
          </CharString>
          <CharString index="232">
            90 -90 279 return
          </CharString>
          <CharString index="233">
            124 20 -72 74 -110 hhcurveto
            -105 -66 -69 501 callgsubr
            -41 71 -102 hhcurveto
            -121 -103 -76 -152 -26 hvcurveto
            -141 -24 67 -111 159 hhcurveto
            9 11 178 callsubr
            17 92 rlineto
            -1 -10 -9 -1 -8 hhcurveto
            -96 -38 66 88 15 hvcurveto
            return
          </CharString>
          <CharString index="234">
            470 callgsubr
            105 hlineto
            return
          </CharString>
          <CharString index="235">
            -153 -26 103 -104 160 -80 callsubr
            return
          </CharString>
          <CharString index="236">
            204 0 108 -108 110 -89 -21 407 144 0 -20 return
          </CharString>
          <CharString index="237">
            rmoveto
            -209 -37 133 -146 196 hhcurveto
            return
          </CharString>
          <CharString index="238">
            hvcurveto
            11 12 0 14 hhcurveto
            157 114 return
          </CharString>
          <CharString index="239">
            -45 -68 279 callgsubr
            return
          </CharString>
          <CharString index="240">
            3 21 1 20 -4 20 138 -1 rcurveline
            -54 -308 rlineto
            return
          </CharString>
          <CharString index="241">
            184 hlineto
            -49 -280 rlineto
            -107 -18 -89 -74 -108 hhcurveto
            return
          </CharString>
          <CharString index="242">
            57 -9 99 -69 513 callsubr
            return
          </CharString>
          <CharString index="243">
            50 callsubr
            524 callgsubr
            return
          </CharString>
          <CharString index="244">
            121 callsubr
            -3 -16 rrcurveto
            return
          </CharString>
          <CharString index="245">
            -4 -9 96 150 82 145 96 return
          </CharString>
          <CharString index="246">
            44 callgsubr
            296 hlineto
            -65 -367 rlineto
            101 402 callsubr
            -223 hlineto
            -52 -296 rlineto
            -192 385 callgsubr
            return
          </CharString>
          <CharString index="247">
            341 -38 rmoveto
            340 308 19 108 -476 -416 rlineto
            524 690 368 callsubr
            679 -238 rmoveto
            15 85 rlineto
            -327 207 callsubr
            return
          </CharString>
          <CharString index="248">
            952 155 callsubr
            return
          </CharString>
          <CharString index="249">
            92 114 139 -139 477 -295 1 callsubr
            return
          </CharString>
          <CharString index="250">
            -51 -69 hhcurveto
            -79 -24 56 73 return
          </CharString>
          <CharString index="251">
            hvcurveto
            1 hlineto
            -140 167 callgsubr
          </CharString>
          <CharString index="252">
            137 callgsubr
            endchar
          </CharString>
          <CharString index="253">
            -46 -63 -17 hvcurveto
            79 hlineto
            return
          </CharString>
          <CharString index="254">
            -32 -181 rlineto
            return
          </CharString>
          <CharString index="255">
            -66 callsubr
            575 hlineto
            -12 -76 -13 -93 -51 -50 -76 -14 rlinecurve
            75 -18 -64 43 -94 207 callgsubr
            return
          </CharString>
          <CharString index="256">
            -79 -54 35 72 12 hvcurveto
            56 10 46 44 91 hhcurveto
            52 hlineto
            16 85 rlineto
            -46 hlineto
            -88 -27 40 69 12 hvcurveto
            11 63 rlineto
            return
          </CharString>
          <CharString index="257">
            -25 -229 rmoveto
            -106 callgsubr
            return
          </CharString>
          <CharString index="258">
            -44 137 callsubr
            return
          </CharString>
          <CharString index="259">
            106 178 83 -83 86 189 return
          </CharString>
          <CharString index="260">
            131 23 -68 94 -122 hhcurveto
            -85 -63 -40 -54 -39 hvcurveto
            35 195 rlineto
            endchar
          </CharString>
          <CharString index="261">
            386 callgsubr
            -12 hvcurveto
            -63 return
          </CharString>
          <CharString index="262">
            -91 callgsubr
            -657 53 callsubr
            return
          </CharString>
          <CharString index="263">
            -179 -152 374 callgsubr
            217 190 13 9 11 10 10 11 rlinecurve
            return
          </CharString>
          <CharString index="264">
            -122 -22 65 -87 132 hhcurveto
            124 83 87 122 21 hvcurveto
            2 14 rlineto
            return
          </CharString>
          <CharString index="265">
            76 113 74 99 88 hstemhm
            45 101 113 78 -78 333 return
          </CharString>
          <CharString index="266">
            -11 -62 -17 -96 -53 -46 -87 -10 rlinecurve
            41 -27 -53 33 -98 hhcurveto
            return
          </CharString>
          <CharString index="267">
            hhcurveto
            88 70 40 55 40 hvcurveto
            -31 -177 rlineto
            return
          </CharString>
          <CharString index="268">
            608 callsubr
            14 76 19 106 rlineto
            return
          </CharString>
          <CharString index="269">
            316 callsubr
            12 68 rlineto
            return
          </CharString>
          <CharString index="270">
            29 164 rlineto
            -105 hlineto
            return
          </CharString>
          <CharString index="271">
            -21 79 -86 122 hhcurveto
            return
          </CharString>
          <CharString index="272">
            40 52 hhcurveto
            hintmask 1111000110000000
            63 22 146 callsubr
            hintmask 1110010110000000
            120 35 -57 77 -117 hhcurveto
            -104 -78 -65 -100 -17 hvcurveto
            132 callgsubr
            -10 -71 -44 -17 -89 rrcurveto
            hintmask 1110101010000000
            return
          </CharString>
          <CharString index="273">
            23 7 17 15 25 hhcurveto
            25 15 -19 -31 -5 hvcurveto
            -7 -37 -31 -28 -45 -31 -122 -79 rcurveline
            -12 -66 rlineto
            269 hlineto
            13 72 rlineto
            -168 hlineto
            81 47 73 44 35 32 9 50 rlinecurve
            59 10 -40 55 -85 hhcurveto
            return
          </CharString>
          <CharString index="274">
            -68 callsubr
            101 hlineto
            30 173 rlineto
            endchar
          </CharString>
          <CharString index="275">
            435 callsubr
            -115 -20 100 -35 79 56 callsubr
            return
          </CharString>
          <CharString index="276">
            hvcurveto
            -122 302 callgsubr
            105 hlineto
            endchar
          </CharString>
          <CharString index="277">
            -72 -13 -45 -46 -63 hhcurveto
            -62 -29 47 71 13 hvcurveto
            26 145 rlineto
            -105 hlineto
            -25 -140 rlineto
            -130 -24 70 -85 121 hhcurveto
            129 -1 87 609 callgsubr
            8 43 rcurveline
            503 callsubr
            return
          </CharString>
          <CharString index="278">
            -145 -26 91 -100 135 160 callsubr
            return
          </CharString>
          <CharString index="279">
            177 callgsubr
            131 740 rlineto
            endchar
          </CharString>
          <CharString index="280">
            hmoveto
            92 callsubr
            return
          </CharString>
          <CharString index="281">
            28 -8 99 -91 91 460 -20 return
          </CharString>
          <CharString index="282">
            73 90 88 hstemhm
            53 87 345 return
          </CharString>
          <CharString index="283">
            hstemhm
            28 117 -117 557 return
          </CharString>
          <CharString index="284">
            -53 -9 -50 -39 -75 hhcurveto
            return
          </CharString>
          <CharString index="285">
            1 1 12 hvcurveto
            return
          </CharString>
          <CharString index="286">
            26 150 22 -43 52 -32 76 -2 rlinecurve
            111 -3 88 73 17 111 11 74 -25 51 -45 30 rrcurveto
            return
          </CharString>
          <CharString index="287">
            rmoveto
            66 13 55 229 callsubr
            -11 -56 -49 -65 hhcurveto
            226 callsubr
            return
          </CharString>
          <CharString index="288">
            hlineto
            -19 -108 -127 -17 -111 -85 -25 -142 rlinecurve
            return
          </CharString>
          <CharString index="289">
            347 callgsubr
            -320 hlineto
            return
          </CharString>
          <CharString index="290">
            -65 callgsubr
            29 164 rlineto
            -105 hlineto
            -29 -163 236 callsubr
            return
          </CharString>
          <CharString index="291">
            hmoveto
            13 callgsubr
            return
          </CharString>
          <CharString index="292">
            6 callgsubr
            endchar
          </CharString>
          <CharString index="293">
            84 -121 hhcurveto
            -121 -89 -72 -104 -18 hvcurveto
            -16 -89 41 -68 78 -56 -236 -160 rcurveline
            -1 -13 514 callsubr
            189 129 134 -78 -303 -236 -2 -9 rlineto
            124 hlineto
            return
          </CharString>
          <CharString index="294">
            605 330 rmoveto
            -92 hlineto
            -89 -15 -81 -62 -119 339 callsubr
            57 10 49 50 callsubr
            244 callgsubr
            return
          </CharString>
          <CharString index="295">
            105 callgsubr
            61 callgsubr
            return
          </CharString>
          <CharString index="296">
            rmoveto
            -55 -35 587 callgsubr
            11 50 32 61 hhcurveto
            86 hlineto
            -11 -60 rlineto
            -74 -13 -41 -45 -63 hhcurveto
            return
          </CharString>
          <CharString index="297">
            -114 hlineto
            -123 -695 rlineto
            349 hlineto
            16 87 rlineto
            -235 hlineto
            return
          </CharString>
          <CharString index="298">
            121 callgsubr
            538 537 -91 callgsubr
            return
          </CharString>
          <CharString index="299">
            315 callsubr
            232 460 callsubr
            return
          </CharString>
          <CharString index="300">
            293 callgsubr
            16 84 rcurveline
            return
          </CharString>
          <CharString index="301">
            54 90 16 hvcurveto
            87 15 72 54 76 hhcurveto
            return
          </CharString>
          <CharString index="302">
            45 65 11 hvcurveto
            return
          </CharString>
          <CharString index="303">
            -671 -83 rmoveto
            -31 callsubr
            87 58 25 145 rlinecurve
            315 callgsubr
            792 hlineto
            -33 -186 rlineto
            52 -27 -54 37 -87 hhcurveto
            -77 -68 -33 -58 -47 hvcurveto
            return
          </CharString>
          <CharString index="304">
            -28 -156 rlineto
            248 callgsubr
            return
          </CharString>
          <CharString index="305">
            -14 callgsubr
            24 return
          </CharString>
          <CharString index="306">
            -91 -30 -38 callgsubr
            return
          </CharString>
          <CharString index="307">
            hlineto
            -33 -191 rlineto
            57 -24 -55 37 -86 hhcurveto
            return
          </CharString>
          <CharString index="308">
            82 -94 134 hhcurveto
            83 124 callgsubr
            return
          </CharString>
          <CharString index="309">
            -138 -76 49 91 16 hvcurveto
            return
          </CharString>
          <CharString index="310">
            rlineto
            -114 hlineto
            return
          </CharString>
          <CharString index="311">
            -14 -80 rlineto
            47 -25 -60 42 -90 hhcurveto
            141 -284 rmoveto
            -119 -21 -93 -67 -86 hhcurveto
            -85 -70 69 119 21 hvcurveto
            119 21 94 64 85 hhcurveto
            86 69 -67 -118 -21 hvcurveto
            return
          </CharString>
          <CharString index="312">
            -44 callgsubr
            hintmask 11111100
            394 callsubr
          </CharString>
          <CharString index="313">
            198 callsubr
            132 rlineto
            return
          </CharString>
          <CharString index="314">
            hlineto
            -17 -97 rlineto
            -72 -12 -46 -46 -63 hhcurveto
            -63 -28 46 72 13 hvcurveto
            return
          </CharString>
          <CharString index="315">
            -45 -8 -25 -27 -65 hhcurveto
            return
          </CharString>
          <CharString index="316">
            -30 callgsubr
            132 107 hintmask 0100001011000000
            346 275 rmoveto
            -90 -30 62 95 17 hvcurveto
            39 501 callsubr
            -235 rlineto
            -77 -13 -53 -65 -84 hhcurveto
            return
          </CharString>
          <CharString index="317">
            -21 57 92 -27 92 49 137 -137 484 callsubr
            240 59 -59 83.5 236.5 109 return
          </CharString>
          <CharString index="318">
            -74 callsubr
            168 hlineto
            return
          </CharString>
          <CharString index="319">
            -54 callsubr
            -225 hlineto
            -14 -87 456 callsubr
            -115 -20 -96 -79 -112 hhcurveto
            return
          </CharString>
          <CharString index="320">
            257 callgsubr
            676 hlineto
            -12 -65 rlineto
            return
          </CharString>
          <CharString index="321">
            919 555 callgsubr
            667 362 callgsubr
            return
          </CharString>
          <CharString index="322">
            97 callgsubr
            endchar
          </CharString>
          <CharString index="323">
            -105 callsubr
            55 return
          </CharString>
          <CharString index="324">
            251 callgsubr
            95 69 return
          </CharString>
          <CharString index="325">
            -21 88 88 -82 353 callsubr
            52 108 return
          </CharString>
          <CharString index="326">
            39 54 47 223 callsubr
            return
          </CharString>
          <CharString index="327">
            vstem
            47 349 130 callsubr
            return
          </CharString>
          <CharString index="328">
            46 callsubr
            107 99 69 117 20 hvcurveto
            return
          </CharString>
          <CharString index="329">
            6 31 rlineto
            -102 hlineto
            -2 -10 -2 -8 -2 -11 rrcurveto
            return
          </CharString>
          <CharString index="330">
            hvcurveto
            -35 291 callsubr
            return
          </CharString>
          <CharString index="331">
            hlineto
            442 callgsubr
            97 -139 rlineto
            return
          </CharString>
          <CharString index="332">
            279 360 callgsubr
            return
          </CharString>
          <CharString index="333">
            -69 73 callgsubr
            return
          </CharString>
          <CharString index="334">
            63 103 18 hvcurveto
            25 return
          </CharString>
          <CharString index="335">
            rmoveto
            -87 98 callgsubr
            89 16 78 60 86 hhcurveto
            80 44 -51 -57 3 hvcurveto
            -1 -9 -2 -14 -1 -13 rrcurveto
            -2 0 -1 -1 -2 vhcurveto
            -73 -16 -59 -78 -102 hhcurveto
            return
          </CharString>
          <CharString index="336">
            46 389 callgsubr
            -65 -12 hvcurveto
            -62 return
          </CharString>
          <CharString index="337">
            -94 hlineto
            -45 -250 rlineto
            100 hlineto
            return
          </CharString>
          <CharString index="338">
            113 19 -63 78 -114 hhcurveto
            return
          </CharString>
          <CharString index="339">
            -121 -21 99 -60 135 hhcurveto
            return
          </CharString>
          <CharString index="340">
            rmoveto
            -117 -59 73 111 20 -103 callgsubr
            return
          </CharString>
          <CharString index="341">
            518 callsubr
            90 -90 279 10 callgsubr
            -81.5 return
          </CharString>
          <CharString index="342">
            rmoveto
            596 callsubr
            125 7 73 65 22 506 callsubr
            184 hlineto
            -49 -280 rlineto
            581 callsubr
            return
          </CharString>
          <CharString index="343">
            rlineto
            -74 callsubr
            return
          </CharString>
          <CharString index="344">
            59 21 -65 79 hhcurveto
            80 69 49 116 40 hvcurveto
            -83 hlineto
            -42 -13 -34 -21 -32 hhcurveto
            return
          </CharString>
          <CharString index="345">
            rmoveto
            249 callgsubr
            return
          </CharString>
          <CharString index="346">
            hhcurveto
            -13 hlineto
            -5 -17 return
          </CharString>
          <CharString index="347">
            305 callgsubr
            rlineto
            -62 -16 -54 -70 -92 hhcurveto
            return
          </CharString>
          <CharString index="348">
            -91 callgsubr
            -693 -62 callsubr
            416 hlineto
            103 callgsubr
            -23 -130 64 -97 110 -38 rrcurveto
            return
          </CharString>
          <CharString index="349">
            -91 -16 -64 -38 -111 hhcurveto
            -269 hlineto
            -23 -129 rlineto
            return
          </CharString>
          <CharString index="350">
            496 -374 92 192 90 156 396 callsubr
            return
          </CharString>
          <CharString index="351">
            -52 -40 19 52 10 hvcurveto
            return
          </CharString>
          <CharString index="352">
            -70 -13 -48 -48 -66 hhcurveto
            -80 -23 57 72 14 hvcurveto
            17 98 rlineto
            75 hlineto
            144 125 73 151 27 hvcurveto
            25 137 -79 79 -129 -1 rrcurveto
            return
          </CharString>
          <CharString index="353">
            -85 callgsubr
            151 hlineto
            -48 -34 -38 -55 -14 -81 rrcurveto
            -148 -26 99 -88 148 hhcurveto
            33 hlineto
            14 83 rlineto
            -19 hlineto
            -108 -51 59 96 16 hvcurveto
            return
          </CharString>
          <CharString index="354">
            -65 175 127 175 rlineto
            -110 hlineto
            -123 -175 61 -175 rlineto
            return
          </CharString>
          <CharString index="355">
            rmoveto
            109 hlineto
            124 175 -62 175 rlineto
            -109 hlineto
            64 -175 rlineto
            return
          </CharString>
          <CharString index="356">
            rmoveto
            -120 -101 -42 -82 -60 hvcurveto
            -255 228 rlineto
            569 hlineto
            -18 -104 rlineto
            return
          </CharString>
          <CharString index="357">
            -105 callgsubr
            119 hlineto
            -66 -380 rlineto
            -150 -27 72 -103 166 hhcurveto
            return
          </CharString>
          <CharString index="358">
            67 117 20 hvcurveto
            1 4 125 6 74 65 21 122 rlinecurve
            14 80 rlineto
            return
          </CharString>
          <CharString index="359">
            79.5 -75 75 return
          </CharString>
          <CharString index="360">
            hvcurveto
            61 11 51 36 return
          </CharString>
          <CharString index="361">
            21 346 callsubr
            return
          </CharString>
          <CharString index="362">
            -77 -127 -22 hvcurveto
            return
          </CharString>
          <CharString index="363">
            rmoveto
            85 hlineto
            21 9 19 14 30 hhcurveto
            32 16 -17 -26 -5 hvcurveto
            -28 -5 -24 -14 -32 hhcurveto
            -34 hlineto
            -10 -58 rlineto
            37 hlineto
            32 19 -16 -27 -5 hvcurveto
            return
          </CharString>
          <CharString index="364">
            478 callsubr
            -101 hlineto
            479 callgsubr
            return
          </CharString>
          <CharString index="365">
            rlinecurve
            -80 -14 65 -45 callsubr
            return
          </CharString>
          <CharString index="366">
            275 -73 callgsubr
            return
          </CharString>
          <CharString index="367">
            678 -61 rmoveto
            -61 -30 43 75 11 hvcurveto
            2 14 rlineto
            114 19 -58 91 -116 hhcurveto
            -84 -62 -41 -55 -38 hvcurveto
            35 197 rlineto
            828 hlineto
            return
          </CharString>
          <CharString index="368">
            89 callsubr
            179 hlineto
            13 75 rlineto
            -1 hlineto
            20 107 rlineto
            endchar
          </CharString>
          <CharString index="369">
            103 hlineto
            17 96 rlineto
            -53 hlineto
            4 21 rlineto
            38 6 19 19 33 hhcurveto
            8 50 rlineto
            -74 -45 -42 -83 -15 hvcurveto
            -5 -29 -2 -33 4 -37 rrcurveto
            endchar
          </CharString>
          <CharString index="370">
            37 59 11 hvcurveto
            return
          </CharString>
          <CharString index="371">
            64 98 17 hvcurveto
            return
          </CharString>
          <CharString index="372">
            -24 callsubr
            hintmask 10000110
            568 callsubr
            endchar
          </CharString>
          <CharString index="373">
            -6 20 -1 21 4 20 rrcurveto
            58 10 35 33 48 hhcurveto
            44 21 -33 -44 -10 hvcurveto
            80 hlineto
            91 23 -38 67 -86 hhcurveto
            -94 -50 -66 -67 -17 hvcurveto
            return
          </CharString>
          <CharString index="374">
            -58 21 58 -35 80 hhcurveto
            117 78 76 137 23 hvcurveto
            12 69 rlineto
            168 hlineto
            -66 112 callsubr
            endchar
          </CharString>
          <CharString index="375">
            -115 -20 90 -63 118 hhcurveto
            101 85 42 70 53 hvcurveto
            567 callgsubr
            return
          </CharString>
          <CharString index="376">
            hhcurveto
            -147 -109 -91 -137 -24 hvcurveto
            -144 -25 92 -97 145 hhcurveto
            return
          </CharString>
          <CharString index="377">
            125 callsubr
            339 callgsubr
            return
          </CharString>
          <CharString index="378">
            -133 -95 -78 -102 -29 hvcurveto
            99 hlineto
            return
          </CharString>
          <CharString index="379" raw="1">
            06f77a1d 0b  
          </CharString>
          <CharString index="380">
            295 callgsubr
            -66 -128 -23 hvcurveto
            return
          </CharString>
          <CharString index="381">
            76 33 -47 -40 2 hvcurveto
            101 hlineto
            return
          </CharString>
          <CharString index="382">
            16 89 rlineto
            -384 hlineto
            return
          </CharString>
          <CharString index="383">
            121 147 callgsubr
            return
          </CharString>
          <CharString index="384">
            -3 17 18 -2 19 hhcurveto
            return
          </CharString>
          <CharString index="385">
            108 283 474 return
          </CharString>
          <CharString index="386">
            476 570 rmoveto
            return
          </CharString>
          <CharString index="387">
            -59 73 111 return
          </CharString>
          <CharString index="388">
            -34 13 -137 hhcurveto
            -45 hlineto
            -12 -68 rlineto
            48 hlineto
            81 44 -5 -158 60 hvcurveto
            73 -77 -30 2 -98 hhcurveto
            -44 hlineto
            -12 -67 rlineto
            46 hlineto
            return
          </CharString>
          <CharString index="389">
            rmoveto
            -72 callgsubr
            672 391 -40 callsubr
            return
          </CharString>
          <CharString index="390">
            -333 -753 rmoveto
            -73 -1 -51 48 14 78 4 25 10 21 15 18 189 -141 rcurveline
            -28 -28 -37 -20 -43 hhcurveto
            39 245 rmoveto
            return
          </CharString>
          <CharString index="391">
            -62 callsubr
            112 hlineto
            -34 -197 rlineto
            -116 -22 65 -90 128 hhcurveto
            131 76 88 118 21 hvcurveto
            34 197 rlineto
            return
          </CharString>
          <CharString index="392">
            hlineto
            -11 -62 -16 -90 -47 -46 -78 -13 rlinecurve
            -19 64 -60 33 -74 -1 -103 -3 -62 -65 -30 -67 rrcurveto
            -2 hlineto
            66 -8 -42 69 -104 hhcurveto
            return
          </CharString>
          <CharString index="393">
            76 -5 -71 61 -112 hhcurveto
            -17 -17 -1 -3 -16 hvcurveto
            -33 591 callsubr
            35 rrcurveto
            53 10 46 18 49 hhcurveto
            181 hlineto
            endchar
          </CharString>
          <CharString index="394">
            -21 79 489 callsubr
            return
          </CharString>
          <CharString index="395">
            rrcurveto
            170 callgsubr
            576 callsubr
            return
          </CharString>
          <CharString index="396">
            115 21 94 55 106 440 callsubr
            return
          </CharString>
          <CharString index="397">
            -105 callgsubr
            367 hlineto
            -14 -83 rlineto
            return
          </CharString>
          <CharString index="398">
            -196 -98 callgsubr
            return
          </CharString>
          <CharString index="399">
            -27 457 callgsubr
            return
          </CharString>
          <CharString index="400">
            469 callgsubr
            53 104 return
          </CharString>
          <CharString index="401">
            122 50 122 return
          </CharString>
          <CharString index="402">
            -78 callgsubr
            -200 -246 rmoveto
            return
          </CharString>
          <CharString index="403">
            469 308 49 callsubr
            return
          </CharString>
          <CharString index="404">
            1348 -43 callsubr
            -1327 -62 callsubr
            1088 hlineto
            -18 -101 rlineto
            -62 hlineto
            -93 -86 -28 -59 -58 hvcurveto
            return
          </CharString>
          <CharString index="405">
            -107 -175 1119 hstem
            -22 582 vstem
            447 944 rmoveto
            -469 -1119 rlineto
            112 hlineto
            470 1119 rlineto
            endchar
          </CharString>
          <CharString index="406">
            hlineto
            -17 -95 -16 -93 42 -43 58 -11 rlinecurve
            -3 vlineto
            return
          </CharString>
          <CharString index="407">
            57 -272 99 164 99 371 99 -9 -20 return
          </CharString>
          <CharString index="408">
            -86 122 hhcurveto
            110 95 69 396 callgsubr
            return
          </CharString>
          <CharString index="409">
            -98 -57 71 96 17 hvcurveto
            return
          </CharString>
          <CharString index="410">
            69 -7 102 600 -20 return
          </CharString>
          <CharString index="411">
            vstem
            -85 callsubr
            return
          </CharString>
          <CharString index="412">
            139 229 rmoveto
            66 12 55 229 callsubr
            -12 -54 -49 512 callgsubr
            46 64 12 hvcurveto
            return
          </CharString>
          <CharString index="413">
            88 85 419 callgsubr
            -74 82 -82 362 -271 78 105 88 hstemhm
            118 152 callsubr
            92 return
          </CharString>
          <CharString index="414">
            142 298 rmoveto
            66 12 56 154 callsubr
            -12 -55 -48 -65 hhcurveto
            226 callsubr
            return
          </CharString>
          <CharString index="415">
            -131 -23 -106 -77 -112 hhcurveto
            -126 -53 73 97 583 callgsubr
            158 114 70 316 callsubr
            return
          </CharString>
          <CharString index="416">
            vstem
            82 callsubr
            return
          </CharString>
          <CharString index="417">
            -75 33 75 -45 105 436 callsubr
            return
          </CharString>
          <CharString index="418">
            -19 438 callgsubr
            42 83 15 hvcurveto
            5 29 2 33 return
          </CharString>
          <CharString index="419">
            rmoveto
            332 callgsubr
            return
          </CharString>
          <CharString index="420">
            rmoveto
            -19 -108 -85 -12 -77 -41 -50 -68 rlinecurve
            -255 229 rlineto
            return
          </CharString>
          <CharString index="421">
            -9 96 377 96 return
          </CharString>
          <CharString index="422">
            90 -90 212 return
          </CharString>
          <CharString index="423">
            136 24 hvcurveto
            return
          </CharString>
          <CharString index="424">
            -53 32 -31 46 11 63 rrcurveto
            52 8 49 47 61 hhcurveto
            67 31 -50 -53 -10 hvcurveto
            -11 -64 -48 -41 -58 -38 -3 -2 rcurveline
            return
          </CharString>
          <CharString index="425">
            86 12 54 78 79 hhcurveto
            74 25 -54 -81 -12 hvcurveto
            -113 -14 63 -75 130 hhcurveto
            128 82 86 122 21 hvcurveto
            return
          </CharString>
          <CharString index="426">
            -163 -16 90 -111 157 hhcurveto
            97 71 38 53 44 hvcurveto
            -34 -194 -95 callsubr
          </CharString>
          <CharString index="427">
            -3 hvcurveto
            -20 -4 13 -16 21 hhcurveto
            20 19 16 20 4 hvcurveto
            endchar
          </CharString>
          <CharString index="428">
            491 372 callgsubr
            return
          </CharString>
          <CharString index="429">
            -38 -14 -47 -1 -51 rrcurveto
            95 hlineto
            return
          </CharString>
          <CharString index="430">
            34 193 rlineto
            endchar
          </CharString>
          <CharString index="431">
            -91 callgsubr
            -696 578 callsubr
            134 callgsubr
            return
          </CharString>
          <CharString index="432">
            400 callgsubr
            76 70 29 54 47 hvcurveto
            return
          </CharString>
          <CharString index="433">
            695 349 callsubr
            return
          </CharString>
          <CharString index="434">
            rmoveto
            115 21 -63 127 -176 hhcurveto
            -153 -112 -91 -136 -24 hvcurveto
            -142 -25 88 -100 155 hhcurveto
            return
          </CharString>
          <CharString index="435">
            -670 rmoveto
            -106 callgsubr
            return
          </CharString>
          <CharString index="436">
            -379 457 238 hstem
            81 227 vstem
            81 457 160 callgsubr
            endchar
          </CharString>
          <CharString index="437">
            rmoveto
            37 6 -24 29 -37 hhcurveto
            -38 -34 -29 -37 -6 hvcurveto
            -37 -7 24 -29 37 hhcurveto
            38 34 29 37 7 hvcurveto
            endchar
          </CharString>
          <CharString index="438">
            441 271 rmoveto
            -81 -61 -38 -53 -38 hvcurveto
            35 197 rlineto
            return
          </CharString>
          <CharString index="439">
            442 274 rmoveto
            -82 -61 -38 -53 -37 hvcurveto
            34 194 rlineto
            return
          </CharString>
          <CharString index="440">
            -86 -13 -53 -59 -28 -60 rrcurveto
            -2 hlineto
            66 -8 -42 69 -104 hhcurveto
            return
          </CharString>
          <CharString index="441">
            439 callgsubr
            88 -206 rlineto
            return
          </CharString>
          <CharString index="442">
            rmoveto
            -90 411 callsubr
            return
          </CharString>
          <CharString index="443">
            347 callsubr
            -270 hlineto
            -29 -164 rlineto
            return
          </CharString>
          <CharString index="444">
            152 callsubr
            93 return
          </CharString>
          <CharString index="445">
            -97 0 202 callgsubr
            return
          </CharString>
          <CharString index="446">
            hhcurveto
            -74 -65 28 72 14 hvcurveto
            return
          </CharString>
          <CharString index="447">
            -79 250 -180 78 return
          </CharString>
          <CharString index="448">
            -77 -57 45 82 15 hvcurveto
            76 14 64 55 84 hhcurveto
            37 hlineto
            67 callsubr
            return
          </CharString>
          <CharString index="449">
            589 76 rmoveto
            -112 -56 62 102 -4 hvcurveto
            1 8 0 8 1 7 129 6 84 67 22 121 rrcurveto
            return
          </CharString>
          <CharString index="450">
            -118 -20 78 -86 122 hhcurveto
            111 95 490 callgsubr
            return
          </CharString>
          <CharString index="451">
            290 callsubr
            -97 -17 -61 -55 -112 hhcurveto
            -105 hlineto
            -36 -210 rlineto
            -125 -22 return
          </CharString>
          <CharString index="452">
            -100 -17 -77 -70 -103 hhcurveto
            -100 -60 67 95 17 hvcurveto
            289 callsubr
            34 193 rlineto
            return
          </CharString>
          <CharString index="453">
            -21 695 -20 return
          </CharString>
          <CharString index="454">
            -28 -156 rlineto
            return
          </CharString>
          <CharString index="455">
            -110 -20 67 return
          </CharString>
          <CharString index="456">
            87 364 callgsubr
            return
          </CharString>
          <CharString index="457">
            -108 377 callsubr
            return
          </CharString>
          <CharString index="458">
            222 -222 335 -162 -21 24 -21 254 75 0 121 23 566 callgsubr
            -13 775 return
          </CharString>
          <CharString index="459">
            -61 35 70 -36 98 hhcurveto
            97 76 41 56 47 hvcurveto
            -35 -200 -95 callsubr
          </CharString>
          <CharString index="460">
            85 7 406 callsubr
            return
          </CharString>
          <CharString index="461">
            -45 callgsubr
            -227 hlineto
            return
          </CharString>
          <CharString index="462">
            -79 256 -192 79 187 75 144 76 106 88 return
          </CharString>
          <CharString index="463">
            65 16 48 75 90 hhcurveto
            74 41 -57 -81 -15 hvcurveto
            1 hlineto
            return
          </CharString>
          <CharString index="464">
            -142 -26 92 -104 153 hhcurveto
            99 79 43 62 52 hvcurveto
            return
          </CharString>
          <CharString index="465">
            407 callgsubr
            -216 return
          </CharString>
          <CharString index="466">
            -155 -28 108 -103 151 hhcurveto
            endchar
          </CharString>
          <CharString index="467">
            hlineto
            16 89 rlineto
            return
          </CharString>
          <CharString index="468">
            rmoveto
            103 hlineto
            -112 156 112 29 88 84 21 122 rlinecurve
            25 140 -83 92 -120 21 return
          </CharString>
          <CharString index="469">
            rmoveto
            15 82 rlineto
            -5 -18 -30 -6 -31 hhcurveto
            -58 -51 35 66 12 hvcurveto
            54 9 44 36 68 hhcurveto
            33 hlineto
            return
          </CharString>
          <CharString index="470">
            -62 callsubr
            1144 hlineto
            -94 callgsubr
            -76 -67 -32 -55 -47 hvcurveto
            return
          </CharString>
          <CharString index="471">
            101 callgsubr
            55 313 rlineto
            return
          </CharString>
          <CharString index="472">
            rmoveto
            199 callsubr
            -42 -237 rlineto
            -76 -13 -53 -64 -83 hhcurveto
            return
          </CharString>
          <CharString index="473">
            hhcurveto
            118 88 64 59 35 hvcurveto
            -39 -217 rlineto
            endchar
          </CharString>
          <CharString index="474">
            293 callsubr
            236 94 return
          </CharString>
          <CharString index="475">
            -91 callgsubr
            -721 -105 callgsubr
            return
          </CharString>
          <CharString index="476">
            21 -21 89 511 callgsubr
            195 88 return
          </CharString>
          <CharString index="477">
            147 callsubr
            101 hlineto
            55 313 rlineto
            return
          </CharString>
          <CharString index="478">
            95 65 56 83 15 hvcurveto
            endchar
          </CharString>
          <CharString index="479">
            hlineto
            -3 -21 rlineto
            -38 -7 return
          </CharString>
          <CharString index="480">
            -94 -75 -50 -88 -15 hvcurveto
            return
          </CharString>
          <CharString index="481">
            -57 -83 -14 hvcurveto
            return
          </CharString>
          <CharString index="482">
            vstem
            260 695 rmoveto
            190 callsubr
            return
          </CharString>
          <CharString index="483">
            518 callsubr
            85 -85 -30 callgsubr
            return
          </CharString>
          <CharString index="484">
            176 rmoveto
            -80 -49 194 callsubr
            93 30 -68 -64 -7 hvcurveto
            -4 -21 return
          </CharString>
          <CharString index="485">
            505 callgsubr
            -107 148 112 21 76 71 17 97 rlinecurve
            99 17 -61 69 -99 hhcurveto
            return
          </CharString>
          <CharString index="486">
            -21 122 92 -28 89 131 90 -35 496 callsubr
            603 108 return
          </CharString>
          <CharString index="487">
            rcurveline
            -1 1 -3 -18 -7 -19 -11 -18 rlinecurve
            -181 136 24 16 29 9 34 3 rlinecurve
            endchar
          </CharString>
          <CharString index="488">
            hvcurveto
            -63 -12 450 callsubr
            12 hvcurveto
            return
          </CharString>
          <CharString index="489">
            496 callsubr
            617 109 return
          </CharString>
          <CharString index="490">
            hhcurveto
            -53 hlineto
            -122 -106 -65 -129 -23 hvcurveto
            -122 return
          </CharString>
          <CharString index="491">
            84 rmoveto
            38 20 -25 -59 -10 hvcurveto
            return
          </CharString>
          <CharString index="492">
            65 21 506 callsubr
            return
          </CharString>
          <CharString index="493">
            -80 -45 38 73 14 hvcurveto
            51 return
          </CharString>
          <CharString index="494">
            hvcurveto
            78 441 rlineto
            return
          </CharString>
          <CharString index="495">
            -22 528 callgsubr
            return
          </CharString>
          <CharString index="496">
            282 -88 88 hstemhm
            return
          </CharString>
          <CharString index="497">
            68 hhcurveto
            66 39 return
          </CharString>
          <CharString index="498">
            195 85 93 197 -97 88 -79 88 hstemhm
            61 112 -63 428 callgsubr
            hintmask 1110100110000000
            return
          </CharString>
          <CharString index="499">
            321 59 rmoveto
            -522 -696 rlineto
            112 hlineto
            522 696 rlineto
            -335 -552 rmoveto
            return
          </CharString>
          <CharString index="500">
            -21 186 89 445 callgsubr
            return
          </CharString>
          <CharString index="501">
            -66 callgsubr
            endchar
          </CharString>
          <CharString index="502">
            -46 -265 481 callgsubr
          </CharString>
          <CharString index="503">
            88 hstemhm
            58 106 return
          </CharString>
          <CharString index="504">
            83 101 89 131 90 -35 88 -88 225 callsubr
            594 106 -88 88 return
          </CharString>
          <CharString index="505">
            70 -20 -62 38 -94 575 callgsubr
            20 -56 42 -35 rrcurveto
            return
          </CharString>
          <CharString index="506">
            422 callsubr
            -48 507 callgsubr
            -26 163 callgsubr
            58 106 return
          </CharString>
          <CharString index="507">
            rcurveline
            55 hlineto
            35 20 -7 -30 -6 hvcurveto
            -30 -5 -22 -7 -35 hhcurveto
            -109 hlineto
            -13 -72 rlineto
            return
          </CharString>
          <CharString index="508">
            458 callsubr
            106 callgsubr
            return
          </CharString>
          <CharString index="509">
            hlineto
            115 36 callsubr
            return
          </CharString>
          <CharString index="510">
            -58 -23 65 -79 hhcurveto
            -80 -67 -49 -116 -41 hvcurveto
            return
          </CharString>
          <CharString index="511">
            155 callgsubr
            26 hlineto
            82 59 -45 -86 -15 hvcurveto
            return
          </CharString>
          <CharString index="512">
            91 hhcurveto
            145 134 117 170 30 hvcurveto
            return
          </CharString>
          <CharString index="513">
            89 433 callgsubr
            return
          </CharString>
          <CharString index="514">
            90 -90 290 -88 88 hstemhm
            43 104 280 97 return
          </CharString>
          <CharString index="515">
            -237 21 499 callgsubr
            return
          </CharString>
          <CharString index="516">
            -105 callgsubr
            122 104 callsubr
            return
          </CharString>
          <CharString index="517">
            -170 -30 95 -117 145 hhcurveto
            return
          </CharString>
          <CharString index="518">
            206 rlineto
            -104 hlineto
            87 -206 rlineto
            return
          </CharString>
          <CharString index="519">
            -375 716 rmoveto
            6 33 rlineto
            88 return
          </CharString>
          <CharString index="520">
            -191 -58 93 -143 209 hhcurveto
            return
          </CharString>
          <CharString index="521">
            -215 -1 -5 -1 -6 -1 -5 rlinecurve
            return
          </CharString>
          <CharString index="522">
            hlineto
            109 2 -67 78 -127 hhcurveto
            return
          </CharString>
          <CharString index="523">
            254 callsubr
            hstem
            return
          </CharString>
          <CharString index="524">
            51 287 rlineto
            -88 hlineto
            return
          </CharString>
          <CharString index="525">
            -7 103 504 104 return
          </CharString>
          <CharString index="526">
            46 390 callsubr
            return
          </CharString>
          <CharString index="527">
            123 695 rlineto
            return
          </CharString>
          <CharString index="528">
            275 -254 -21 return
          </CharString>
          <CharString index="529">
            21 -21 86 84 return
          </CharString>
          <CharString index="530">
            85 -85 270 return
          </CharString>
          <CharString index="531">
            91 -87 91 -87 215 -87 80 102 89 59 481 callsubr
            -88 97 hstemhm
            53 104 return
          </CharString>
          <CharString index="532">
            -85 -75 -36 -62 -48 hvcurveto
            -162 401 callsubr
            return
          </CharString>
          <CharString index="533">
            -70 callgsubr
            -63 -12 -54 225 callgsubr
            return
          </CharString>
          <CharString index="534">
            -105 callgsubr
            endchar
          </CharString>
          <CharString index="535">
            -6 -35 0 -34 5 -30 rrcurveto
            hintmask 1100010110000000
            122 callsubr
            return
          </CharString>
          <CharString index="536">
            34 278 rmoveto
            410 callsubr
            90 73 42 50 44 hvcurveto
            return
          </CharString>
          <CharString index="537">
            443 callsubr
            -86 -13 -52 -59 -28 -60 rlinecurve
            -3 hlineto
            66 -8 -42 69 -104 hhcurveto
            return
          </CharString>
          <CharString index="538">
            hvcurveto
            -24 -136 rlineto
            96 hlineto
            81 451 51 41 34 57 12 70 rlinecurve
            -100 hlineto
            return
          </CharString>
          <CharString index="539">
            190 callsubr
            endchar
          </CharString>
          <CharString index="540">
            -463 413 callgsubr
            return
          </CharString>
          <CharString index="541">
            -42 callgsubr
            -228 hlineto
            -50 -283 rlineto
            return
          </CharString>
          <CharString index="542">
            -20 -107 rlineto
            -101 292 callgsubr
            return
          </CharString>
          <CharString index="543">
            hhcurveto
            96 73 40 54 47 hvcurveto
            -35 -197 rlineto
            return
          </CharString>
          <CharString index="544">
            163 418 callsubr
            return
          </CharString>
          <CharString index="545">
            21 508 callgsubr
            return
          </CharString>
          <CharString index="546">
            -62 callsubr
            309 hlineto
            return
          </CharString>
          <CharString index="547">
            hhcurveto
            111 hlineto
            return
          </CharString>
          <CharString index="548">
            rlineto
            129 hlineto
            return
          </CharString>
          <CharString index="549">
            21 -21 89 89 return
          </CharString>
          <CharString index="550">
            hlineto
            -20 -118 return
          </CharString>
          <CharString index="551">
            88 hstemhm
            85 107 return
          </CharString>
          <CharString index="552">
            -97 -17 55 -57 87 hhcurveto
            86 75 57 97 17 hvcurveto
            97 17 -55 56 -86 hhcurveto
            return
          </CharString>
          <CharString index="553">
            123 callsubr
            69 33 -51 -69 -6 hvcurveto
            -1 -1 0 -1 -1 vvcurveto
            return
          </CharString>
          <CharString index="554">
            rmoveto
            -117 -58 65 98 18 hvcurveto
            3 vlineto
            126 6 75 68 21 126 return
          </CharString>
          <CharString index="555">
            -437 -347 -1 -5 rlineto
            138 hlineto
            287 242 -43 -242 rlineto
            return
          </CharString>
          <CharString index="556">
            -24 -136 71 -84 106 -12 rrcurveto
            return
          </CharString>
          <CharString index="557">
            -55 225 callgsubr
            return
          </CharString>
          <CharString index="558">
            368 -277 89 100 88 hstemhm
            return
          </CharString>
          <CharString index="559">
            203 callsubr
            -97 -551 rlineto
            return
          </CharString>
          <CharString index="560">
            508 callsubr
            -7 88 return
          </CharString>
          <CharString index="561">
            51 71 12 hvcurveto
            21 122 rlineto
            return
          </CharString>
          <CharString index="562">
            113 20 -64 78 -116 hhcurveto
            return
          </CharString>
          <CharString index="563">
            -50 -281 rlineto
            1 vlineto
            return
          </CharString>
          <CharString index="564">
            -65 -58 -21 -38 -46 hvcurveto
            return
          </CharString>
          <CharString index="565">
            hlineto
            12 71 rlineto
            return
          </CharString>
          <CharString index="566">
            hhcurveto
            -9 -50 rlineto
            return
          </CharString>
          <CharString index="567">
            88 hstemhm
            44 106 return
          </CharString>
          <CharString index="568">
            227 -227 397 -261 91 332 89 104 88 hstemhm
            43 106 return
          </CharString>
          <CharString index="569">
            539 callgsubr
            -15 hlineto
            -4 -16 -4 -19 -3 -16 rrcurveto
            return
          </CharString>
          <CharString index="570">
            85 -85 4 callgsubr
            -88 97 hstemhm
            52 108 283 22 return
          </CharString>
          <CharString index="571">
            123 callgsubr
            -18 -19 return
          </CharString>
          <CharString index="572">
            152 -6 103 195 89 219 104 return
          </CharString>
          <CharString index="573">
            106 callgsubr
            -116 return
          </CharString>
          <CharString index="574">
            11 -48 callsubr
            return
          </CharString>
          <CharString index="575">
            88 211 89 hstem
            return
          </CharString>
          <CharString index="576">
            -57 43 -35 rrcurveto
            return
          </CharString>
          <CharString index="577">
            hlineto
            hintmask 10101000
            -72 -185 rlineto
            109 hlineto
            hintmask 01101000
            72 185 rlineto
            return
          </CharString>
          <CharString index="578">
            95 -86 callgsubr
            123 -42 callgsubr
            -222 hlineto
            return
          </CharString>
          <CharString index="579">
            89 190 389 callsubr
            86 102 244 104 341 105 return
          </CharString>
          <CharString index="580">
            hhcurveto
            9 8 178 callsubr
            17 92 rlineto
            -1 -10 -8 -1 -9 hhcurveto
            return
          </CharString>
          <CharString index="581">
            -124 -21 59 -92 126 hhcurveto
            122 65 89 120 13 hvcurveto
            return
          </CharString>
          <CharString index="582">
            -141 131 -131 228 -228 541 -531 121 return
          </CharString>
          <CharString index="583">
            -210 81 74 334 73 90 88 hstem
            53 87 345 83 vstem
            return
          </CharString>
          <CharString index="584">
            0 502 -413 89 -75 89 179 86 -43 88 150 88 return
          </CharString>
          <CharString index="585">
            -127 -22 64 -95 135 411 callgsubr
            return
          </CharString>
          <CharString index="586">
            -74 25 67 -42 90 hhcurveto
            83 124 callgsubr
            482 callsubr
            return
          </CharString>
          <CharString index="587">
            300 0 89 53 89 77 468 callsubr
            -40 966 vstem
            return
          </CharString>
          <CharString index="588">
            79 115 88 return
          </CharString>
          <CharString index="589">
            -31 -178 rlineto
            return
          </CharString>
          <CharString index="590">
            21 -21 57 92 return
          </CharString>
          <CharString index="591">
            477 -334 90 -51 527 callsubr
            -88 88 hstemhm
            44 107 return
          </CharString>
          <CharString index="592">
            -3 callsubr
            -88 88 hstemhm
            return
          </CharString>
          <CharString index="593">
            224 callgsubr
            16 84 rlineto
            return
          </CharString>
          <CharString index="594">
            38 55 hhcurveto
            48 23 -36 -55 -11 hvcurveto
            92 hlineto
            107 23 -50 72 return
          </CharString>
          <CharString index="595">
            92 114 -3 callsubr
            return
          </CharString>
          <CharString index="596">
            301 callsubr
            9 53 -11 return
          </CharString>
          <CharString index="597">
            -18 -104 rlineto
            -15 hlineto
            -121 -102 -43 -84 -60 hvcurveto
            -237 hlineto
            return
          </CharString>
          <CharString index="598">
            250 147 callgsubr
            -1034 -62 callsubr
            683 hlineto
            return
          </CharString>
          <CharString index="599">
            hvcurveto
            -37 -6 24 -29 37 hhcurveto
            37 35 607 callgsubr
          </CharString>
          <CharString index="600">
            218 rcurveline
            146 callgsubr
            return
          </CharString>
          <CharString index="601">
            rlineto
            126 hlineto
            181 84 107 99 return
          </CharString>
          <CharString index="602">
            -95 -17 -62 -62 -112 hhcurveto
            -29 hlineto
            return
          </CharString>
          <CharString index="603">
            90 -90 225 callsubr
            return
          </CharString>
          <CharString index="604">
            176 -155 -21 94 86 -83 79 return
          </CharString>
          <CharString index="605">
            1002 rmoveto
            -85 hlineto
            -55 -10 -52 -55 return
          </CharString>
          <CharString index="606">
            88 hstemhm
            39 107 310 104 -85 85 return
          </CharString>
          <CharString index="607">
            210 253 callgsubr
            return
          </CharString>
          <CharString index="608">
            220 rlineto
            256 hlineto
            -42 return
          </CharString>
          <CharString index="609">
            179 89 384 88 hstem
            return
          </CharString>
          <CharString index="610">
            100 hlineto
            20 16 0 15 hhcurveto
            return
          </CharString>
          <CharString index="611">
            83 87 127 14 hvcurveto
            return
          </CharString>
          <CharString index="612">
            258 83 129 88 return
          </CharString>
          <CharString index="613">
            121 rlinecurve
            15 80 rlineto
            return
          </CharString>
          <CharString index="614">
            -12 -41 -45 -61 hhcurveto
            -68 return
          </CharString>
          <CharString index="615">
            89 143 76 -76 86 return
          </CharString>
          <CharString index="616">
            -21 88 88 -82 86 return
          </CharString>
          <CharString index="617">
            -8 91 -83 215 return
          </CharString>
          <CharString index="618">
            -357 21 -21 return
          </CharString>
          <CharString index="619">
            617 109 return
          </CharString>
          <CharString index="620">
            -21 461 99 return
          </CharString>
          <CharString index="621">
            rlineto
            120 hlineto
            return
          </CharString>
          <CharString index="622">
            vstem
            154 740 416 callgsubr
            return
          </CharString>
          <CharString index="623">
            -145 -25 65 -102 160 hhcurveto
            10 11 0 1 14 hvcurveto
            return
          </CharString>
          <CharString index="624">
            -142 -25 83 -96 151 hhcurveto
            103 75 49 65 46 hvcurveto
            return
          </CharString>
          <CharString index="625">
            -3 callsubr
            -279 return
          </CharString>
          <CharString index="626">
            796 -72 callsubr
            return
          </CharString>
          <CharString index="627">
            rmoveto
            127 callgsubr
            21 hvcurveto
            1 4 124 7 return
          </CharString>
          <CharString index="628">
            80 187 75 144 75 107 88 hstem
            28 634 vstem
            return
          </CharString>
          <CharString index="629">
            -4 callgsubr
            rrcurveto
            783 84 -91 callgsubr
            return
          </CharString>
          <CharString index="630">
            -146 -24 81 -91 132 hhcurveto
            83 124 callgsubr
            return
          </CharString>
          <CharString index="631">
            111 412 rmoveto
            -18 -101 rlineto
            510 hlineto
            18 101 rlineto
            return
          </CharString>
          <CharString index="632">
            -32 -180 rlineto
            return
          </CharString>
          <CharString index="633">
            103 164 97 return
          </CharString>
          <CharString index="634">
            92 -92 295 return
          </CharString>
          <CharString index="635">
            -43 -246 rlineto
            return
          </CharString>
          <CharString index="636">
            87 271 84 137 76 103 88 hstem
            33 102 vstem
            return
          </CharString>
          <CharString index="637">
            -199 -10 54 242 203 callsubr
            -30 -242 return
          </CharString>
          <CharString index="638">
            275 108 callgsubr
            return
          </CharString>
          <CharString index="639">
            hhcurveto
            67 54 27 44 38 hvcurveto
            127 callsubr
            return
          </CharString>
          <CharString index="640">
            hhcurveto
            96 73 384 callgsubr
            105 hlineto
            return
          </CharString>
          <CharString index="641">
            -34 -197 185 callsubr
          </CharString>
          <CharString index="642">
            73 90 88 -88 97 hstemhm
            53 87 return
          </CharString>
          <CharString index="643">
            -23 -129 66 -86 110 -9 return
          </CharString>
          <CharString index="644">
            121 81 80 132 23 hvcurveto
            return
          </CharString>
          <CharString index="645">
            19 90 231 400 -88 88 return
          </CharString>
          <CharString index="646">
            88 -69 92 159 88 -74 74 return
          </CharString>
          <CharString index="647">
            -94 hlineto
            -45 -256 rlineto
            99 hlineto
            return
          </CharString>
          <CharString index="648">
            -262 72 74 68 return
          </CharString>
          <CharString index="649">
            88 hstemhm
            45 103 return
          </CharString>
          <CharString index="650">
            -78 -441 rlineto
            return
          </CharString>
          <CharString index="651">
            209 callgsubr
            539 callgsubr
            return
          </CharString>
          <CharString index="652">
            59 10 37 42 58 hhcurveto
            56 19 -50 -67 -13 hvcurveto
            return
          </CharString>
          <CharString index="653">
            573 callsubr
            94 return
          </CharString>
          <CharString index="654">
            hvcurveto
            -2 -9 -1 -12 1 -10 rrcurveto
            70 hlineto
            -1 5 return
          </CharString>
          <CharString index="655">
            -20 -114 -81 -11 -64 -49 -42 -69 rlinecurve
            -3 hlineto
            return
          </CharString>
          <CharString index="656">
            -59 -11 -29 -25 -38 hhcurveto
            -38 -21 25 59 11 hvcurveto
            return
          </CharString>
          <CharString index="657">
            244 callsubr
            60 10 59 13 49 hhcurveto
            return
          </CharString>
          <CharString index="658">
            hmoveto
            32 callgsubr
            return
          </CharString>
          <CharString index="659">
            85 15 52 57 81 hhcurveto
            80 19 -70 -94 -13 hvcurveto
            return
          </CharString>
          <CharString index="660">
            -22 -125 rlineto
            61 callgsubr
            return
          </CharString>
          <CharString index="661">
            89 193 -30 callgsubr
            85 103 return
          </CharString>
          <CharString index="662">
            93 -93 308 -85 85 153 88 hstemhm
            69 107 return
          </CharString>
          <CharString index="663">
            -25 hvcurveto
            -1 -6 104 -1 1 10 rlineto
            189 34 return
          </CharString>
          <CharString index="664">
            477 -369 86 -12 527 callsubr
            -88 88 return
          </CharString>
          <CharString index="665">
            -125 -110 rlineto
            97 hlineto
            121 109 rlineto
            return
          </CharString>
          <CharString index="666">
            1 2 1 6 1 7 rrcurveto
            -103 hlineto
            -2 -14 rlineto
            return
          </CharString>
          <CharString index="667">
            -41 -7 26 -32 41 hhcurveto
            endchar
          </CharString>
          <CharString index="668">
            40 227 callgsubr
            return
          </CharString>
          <CharString index="669">
            -73 -44 -82 -15 hvcurveto
            -10 return
          </CharString>
          <CharString index="670">
            -7 146 -125 -21 return
          </CharString>
          <CharString index="671">
            hlineto
            -12 608 callgsubr
            return
          </CharString>
          <CharString index="672">
            97 551 rlineto
            return
          </CharString>
          <CharString index="673">
            -35 -200 rlineto
            return
          </CharString>
          <CharString index="674">
            -740 rlineto
            endchar
          </CharString>
          <CharString index="675">
            -73 -414 -98 callgsubr
            return
          </CharString>
          <CharString index="676">
            hlineto
            -150 -128 -79 -154 -27 hvcurveto
            -17 return
          </CharString>
          <CharString index="677">
            79 598 callsubr
            return
          </CharString>
          <CharString index="678">
            272 callgsubr
            39 106 return
          </CharString>
          <CharString index="679">
            277 498 callgsubr
            return
          </CharString>
          <CharString index="680">
            39 59 415 callgsubr
            return
          </CharString>
          <CharString index="681">
            370 callsubr
            73 return
          </CharString>
          <CharString index="682">
            -57 45 82 15 hvcurveto
            76 13 65 55 84 hhcurveto
            return
          </CharString>
          <CharString index="683">
            117 -33 callsubr
            return
          </CharString>
          <CharString index="684">
            -122 56 rmoveto
            -99 hlineto
            128 162 rlineto
            return
          </CharString>
          <CharString index="685">
            -62 callsubr
            392 hlineto
            return
          </CharString>
          <CharString index="686">
            -300 206 73 317 return
          </CharString>
          <CharString index="687">
            -48 61 100 17 hvcurveto
            107 19 return
          </CharString>
          <CharString index="688">
            -107 -18 -88 -74 -109 hhcurveto
            return
          </CharString>
          <CharString index="689">
            hlineto
            -9 -19 -7 -21 -4 -23 return
          </CharString>
          <CharString index="690">
            47 118 474 118 return
          </CharString>
          <CharString index="691">
            -652 rmoveto
            390 callgsubr
            return
          </CharString>
          <CharString index="692">
            14 -4 callsubr
            return
          </CharString>
          <CharString index="693">
            hlineto
            -107 -606 rlineto
            return
          </CharString>
          <CharString index="694">
            -88 396 callsubr
            return
          </CharString>
          <CharString index="695">
            107 512 callsubr
            return
          </CharString>
          <CharString index="696">
            hlineto
            -57 -326 rlineto
            return
          </CharString>
          <CharString index="697">
            -118 132 return
          </CharString>
          <CharString index="698">
            12 -18 24 7 return
          </CharString>
          <CharString index="699">
            rmoveto
            -53 -37 36 return
          </CharString>
          <CharString index="700">
            88 -81 90 hstemhm
            123 102 168 95 return
          </CharString>
          <CharString index="701">
            64 callgsubr
            174 hlineto
            return
          </CharString>
          <CharString index="702">
            -49 -279 rlineto
            -180 hlineto
            12 67 rlineto
            return
          </CharString>
          <CharString index="703">
            127 callgsubr
            20 hvcurveto
            1 4 return
          </CharString>
          <CharString index="704">
            hhcurveto
            -128 -100 277 callgsubr
            return
          </CharString>
          <CharString index="705">
            145 419 -279 514 callgsubr
            return
          </CharString>
          <CharString index="706">
            46 callsubr
            110 return
          </CharString>
          <CharString index="707">
            -9 90 -81 205 -203 83 -64 -21 return
          </CharString>
          <CharString index="708">
            502 callsubr
            86 102 vstem
            return
          </CharString>
          <CharString index="709">
            57 -241 -21 253 99 371 99 return
          </CharString>
          <CharString index="710">
            29 -38 hhcurveto
            -37 -34 589 callgsubr
            return
          </CharString>
          <CharString index="711">
            81.5 246.5 return
          </CharString>
          <CharString index="712">
            18 hvcurveto
            25 140 240 -215 rlineto
            return
          </CharString>
          <CharString index="713">
            230 callgsubr
            endchar
          </CharString>
          <CharString index="714">
            -18 -3 -16 rrcurveto
            return
          </CharString>
          <CharString index="715">
            hhcurveto
            179 hlineto
            return
          </CharString>
          <CharString index="716">
            89 -89 281 return
          </CharString>
        <CharString name=".notdef">
          -121 0 50 600 50 hstem
          0 50 400 50 vstem
          0 vmoveto
          500 700 -500 hlineto
          250 -305 rmoveto
          -170 255 rlineto
          340 hlineto
          -140 -300 rmoveto
          170 255 rlineto
          -510 vlineto
          -370 -45 rmoveto
          170 255 170 -255 rlineto
          -370 555 rmoveto
          170 -255 -170 -255 rlineto
          endchar
        </CharString>
        <CharString name="A">
          8 callgsubr
          hintmask 10110000
          -15 89 109 callsubr
        </CharString>
        <CharString name="AE">
          480 callsubr
          529 617 113 callsubr
        </CharString>
        <CharString name="Aacute">
          8 callgsubr
          100 799 -72 callsubr
          hintmask 10110000
          -98 -613 109 callsubr
        </CharString>
        <CharString name="Abreve">
          162 callgsubr
          77 89 hstemhm
          -18 630 -305 67 hintmask 10111000
          -15 callgsubr
          hintmask 01111000
          226 callgsubr
          139 750 rmoveto
          314 callgsubr
          hintmask 10110100
          38 callgsubr
          hintmask 01111000
          95 65 56 83 15 hvcurveto
          hintmask 10111000
          -154 -661 109 callsubr
        </CharString>
        <CharString name="Acircumflex">
          8 callgsubr
          104 599 -31 callgsubr
          hintmask 10110000
          8 -596 109 callsubr
        </CharString>
        <CharString name="Adieresis">
          162 callgsubr
          hstemhm
          -18 630 -316 294 callsubr
          20 callsubr
          hintmask 10101100
          -120 623 -89 callgsubr
          -67 -534 109 callsubr
        </CharString>
        <CharString name="Agrave">
          8 callgsubr
          -121 799 30 callgsubr
          hintmask 10110000
          -93 -588 109 callsubr
        </CharString>
        <CharString name="Amacron">
          162 callgsubr
          104 85 hstemhm
          -18 651 hintmask 10111000
          -15 callgsubr
          hintmask 01111000
          226 callgsubr
          -200 723 63 callsubr
          hintmask 10111000
          -181 -634 109 callsubr
        </CharString>
        <CharString name="Aogonek">
          76 -211 74 137 20 122 89 465 -20 hstem
          -18 630 vstem
          486 696 rmoveto
          -132 hlineto
          -372 -696 rlineto
          119 hlineto
          226 callgsubr
          22 -122 -61 -38 -27 -44 -7 -40 rlinecurve
          -81 -14 66 -45 callsubr
          53 25 rcurveline
          -160 231 109 callsubr
        </CharString>
        <CharString name="Aring">
          162 callgsubr
          74 59 102 58 hstemhm
          -18 630 hintmask 10111100
          -15 callgsubr
          hintmask 01111100
          226 callgsubr
          34 718 rmoveto
          -30 -5 -27 -21 -29 hhcurveto
          -28 -19 21 30 5 hvcurveto
          31 6 26 20 28 hhcurveto
          29 20 -20 -31 -6 hvcurveto
          -161 -1 rmoveto
          -67 -12 42 -42 60 hhcurveto
          61 55 42 67 12 hvcurveto
          68 12 -40 42 -61 hhcurveto
          -60 -57 -42 -68 -12 hvcurveto
          hintmask 10111100
          112 -628 109 callsubr
        </CharString>
        <CharString name="Atilde">
          162 callgsubr
          75 483 callgsubr
          -18 642 hintmask 10101100
          -15 callgsubr
          hintmask 01101100
          226 callgsubr
          -199 611 57 callgsubr
          hintmask 10110100
          -60 callsubr
          hintmask 10101100
          -40 -14 44 -54 hhcurveto
          hintmask 01101100
          -58 -51 -38 -79 -24 hvcurveto
          hintmask 10101100
          184 -522 109 callsubr
        </CharString>
        <CharString name="B">
          9 0 89 222 89 206 89 hstem
          23 584 vstem
          450 199 rmoveto
          -69 -12 -54 -41 -77 hhcurveto
          -154 hlineto
          39 222 rlineto
          150 hlineto
          76 45 -43 -69 -13 hvcurveto
          36 303 rmoveto
          -64 -11 -52 -38 -74 hhcurveto
          -141 hlineto
          36 206 rlineto
          141 hlineto
          74 38 -39 -65 -11 hvcurveto
          76 -315 rmoveto
          15 83 -47 74 -71 13 71 24 60 51 14 84 rrcurveto
          98 18 -64 81 -147 hhcurveto
          -265 hlineto
          -123 -695 rlineto
          278 hlineto
          142 101 81 106 18 hvcurveto
          endchar
        </CharString>
        <CharString name="C">
          152 -6 103 503 104 hstem
          41 118 220 callsubr
          145 138 72 136 77 hvcurveto
          -137 hlineto
          -70 -49 -73 -35 -83 -83 callsubr
          endchar
        </CharString>
        <CharString name="CR">
          -321 endchar
        </CharString>
        <CharString name="Cacute">
          152 -6 103 503 104 hstem
          41 118 220 callsubr
          145 138 72 136 77 hvcurveto
          -137 hlineto
          -70 -49 -73 -35 -83 -83 callsubr
          557 592 -72 callsubr
          endchar
        </CharString>
        <CharString name="Ccaron">
          152 -6 103 503 104 hstem
          41 118 220 callsubr
          145 138 72 136 77 hvcurveto
          -137 hlineto
          -70 -49 -73 -35 -83 -83 callsubr
          592 564 -41 callgsubr
        </CharString>
        <CharString name="Ccedilla">
          152 541 callsubr
          43 102 503 104 hstem
          41 118 vstem
          47 349 rmoveto
          -34 -195 113 -140 174 -18 -20 -112 rcurveline
          8 callsubr
          8 43 131 11 122 71 71 125 rlinecurve
          -137 hlineto
          -70 -49 -73 -35 -83 -83 callsubr
          endchar
        </CharString>
        <CharString name="Cdotaccent">
          152 -6 103 503 104 61 120 hstem
          41 118 261 120 220 callsubr
          145 138 72 136 77 hvcurveto
          -137 hlineto
          -70 -49 -73 -35 -83 -83 callsubr
          423 416 -53 callsubr
        </CharString>
        <CharString name="D">
          81 callsubr
          endchar
        </CharString>
        <CharString name="Dcaron">
          81 callsubr
          342 826 -41 callgsubr
        </CharString>
        <CharString name="Dcroat">
          33 callsubr
        </CharString>
        <CharString name="E">
          338 callsubr
          hstem
          23 507 vstem
          -84 callgsubr
          endchar
        </CharString>
        <CharString name="Eacute">
          338 callsubr
          hstem
          23 507 vstem
          -84 callgsubr
          236 334 -72 callsubr
          endchar
        </CharString>
        <CharString name="Ebreve">
          338 callsubr
          -89 307 -161 89 hstemhm
          23 507 -310 67 hintmask 11101100
          -84 callgsubr
          275 285 rmoveto
          hintmask 11010100
          314 callgsubr
          hintmask 11101010
          208 callsubr
          hintmask 11010010
          33 callgsubr
          hintmask 11101100
          145 callsubr
        </CharString>
        <CharString name="Ecaron">
          338 callsubr
          hstem
          23 507 vstem
          -84 callgsubr
          271 306 -41 callgsubr
        </CharString>
        <CharString name="Ecircumflex">
          338 callsubr
          hstem
          23 507 vstem
          -84 callgsubr
          240 134 -31 callgsubr
          endchar
        </CharString>
        <CharString name="Edieresis">
          338 callsubr
          hstemhm
          23 507 -321 294 callsubr
          hintmask 11110000
          -84 callgsubr
          hintmask 11101100
          16 158 -89 callgsubr
          endchar
        </CharString>
        <CharString name="Edotaccent">
          338 callsubr
          69 120 hstemhm
          23 507 -234 120 hintmask 11101000
          -84 callgsubr
          hintmask 11110100
          102 158 -53 callsubr
        </CharString>
        <CharString name="Egrave">
          338 callsubr
          hstem
          23 507 vstem
          -84 callgsubr
          15 334 30 callgsubr
          endchar
        </CharString>
        <CharString name="Emacron">
          338 callsubr
          84 85 hstem
          23 523 vstem
          -84 callgsubr
          -64 258 63 callsubr
          endchar
        </CharString>
        <CharString name="Eogonek">
          -97 -211 74 137 202 callgsubr
          hstem
          23 507 vstem
          514 607 rmoveto
          275 callsubr
          -123 -696 rlineto
          245 hlineto
          -49 -32 -23 -35 216 callgsubr
          16 89 rlineto
          -270 hlineto
          39 219 rlineto
          240 -42 callgsubr
          -240 hlineto
          37 211 rlineto
          endchar
        </CharString>
        <CharString name="Eth">
          33 callsubr
        </CharString>
        <CharString name="Euro">
          181 -6 103 130 78 88 78 129 104 hstem
          108 112 vstem
          108 349 rmoveto
          -3 -15 -1 -15 -1 -14 rrcurveto
          -75 hlineto
          -14 -78 rlineto
          92 hlineto
          -142 23 115 -91 156 hhcurveto
          144 138 72 136 77 hvcurveto
          -137 hlineto
          -70 -49 -72 -35 -83 hhcurveto
          -97 -69 48 82 -23 hvcurveto
          212 hlineto
          14 78 rlineto
          -235 hlineto
          1 14 1 15 3 15 3 15 3 15 5 14 rrcurveto
          235 hlineto
          13 78 rlineto
          -212 hlineto
          81 52 87 48 96 hhcurveto
          83 59 -35 -70 25 hvcurveto
          137 hlineto
          136 -29 -113 73 -144 hhcurveto
          -156 -147 -92 -141 -73 hvcurveto
          -92 hlineto
          -13 -78 rlineto
          74 hlineto
          -4 -14 -3 -15 -3 -15 rrcurveto
          endchar
        </CharString>
        <CharString name="F">
          -106 21 -21 307 456 callgsubr
          532 522 callgsubr
          54 307 rlineto
          230 147 callgsubr
          -230 hlineto
          37 211 rlineto
          295 360 callsubr
          endchar
        </CharString>
        <CharString name="G">
          465 callsubr
          hstem
          41 118 220 callsubr
          187 160 137 161 50 hvcurveto
          16 89 rlineto
          -383 hlineto
          -16 -89 rlineto
          261 hlineto
          -118 -37 -94 -77 -126 -83 callsubr
          endchar
        </CharString>
        <CharString name="Gbreve">
          465 callsubr
          49 89 hstem
          41 118 185 67 220 callsubr
          187 160 137 161 50 hvcurveto
          16 89 rlineto
          -383 hlineto
          -16 -89 rlineto
          261 hlineto
          -118 -37 -94 -77 -126 -83 callsubr
          596 543 rmoveto
          314 callgsubr
          38 callgsubr
          95 65 56 83 15 hvcurveto
          endchar
        </CharString>
        <CharString name="Gdotaccent">
          465 callsubr
          61 120 hstem
          41 118 261 120 220 callsubr
          187 160 137 161 50 hvcurveto
          16 89 rlineto
          -383 hlineto
          -16 -89 rlineto
          261 hlineto
          -118 -37 -94 -77 -126 -83 callsubr
          423 416 -53 callsubr
        </CharString>
        <CharString name="H">
          84 0 395 -88 88 -88 388 hstemhm
          23 678 hintmask 00110000
          587 695 rmoveto
          hintmask 01010000
          -53 -300 rlineto
          -327 hlineto
          hintmask 00110000
          53 300 203 callsubr
          hintmask 10010000
          -123 -695 -24 callgsubr
          hintmask 01010000
          54 307 rlineto
          327 hlineto
          hintmask 10010000
          -54 -307 -24 callgsubr
          hintmask 00110000
          420 callsubr
          endchar
        </CharString>
        <CharString name="I">
          -357 416 callsubr
          23 237 vstem
          15 callsubr
          endchar
        </CharString>
        <CharString name="Iacute">
          -357 416 callsubr
          23 327 vstem
          15 callsubr
          90 246 -72 callsubr
          endchar
        </CharString>
        <CharString name="Icircumflex">
          -357 416 callsubr
          23 347 vstem
          15 callsubr
          94 46 -31 callgsubr
          endchar
        </CharString>
        <CharString name="Idieresis">
          -357 21 510 callgsubr
          23 350 -294 294 callsubr
          hintmask 11100000
          15 callsubr
          hintmask 11011000
          -130 70 -89 callgsubr
          endchar
        </CharString>
        <CharString name="Idotaccent">
          -357 254 callsubr
          90 120 hstemhm
          23 264 -121 120 hintmask 11110000
          15 callsubr
          hintmask 11101000
          -44 70 -53 callsubr
        </CharString>
        <CharString name="Igrave">
          -357 416 callsubr
          23 305 vstem
          15 callsubr
          -131 246 30 callgsubr
          endchar
        </CharString>
        <CharString name="Imacron">
          -357 254 callsubr
          105 85 hstem
          23 393 vstem
          15 callsubr
          -210 170 63 callsubr
          endchar
        </CharString>
        <CharString name="Iogonek">
          -357 -210 74 158 -21 694 -20 hstem
          -81 341 vstem
          146 695 rmoveto
          -120 -678 -67 -37 -31 34 callsubr
          51 24 rcurveline
          1 1 1 hlineto
          -1 2 123 692 rlineto
          endchar
        </CharString>
        <CharString name="Itilde">
          -357 254 callsubr
          76 483 callgsubr
          23 384 hintmask 11011000
          15 callsubr
          -209 58 -19 callsubr
        </CharString>
        <CharString name="J">
          -57 -7 101 601 -20 hstem
          23 502 vstem
          410 695 rmoveto
          -88 -501 rlineto
          -58 -11 -36 -42 -61 hhcurveto
          -61 -21 42 58 10 hvcurveto
          -115 hlineto
          -126 -23 72 -75 120 hhcurveto
          120 98 75 126 23 hvcurveto
          88 501 rlineto
          endchar
        </CharString>
        <CharString name="K">
          12 416 callsubr
          23 650 vstem
          530 695 rmoveto
          -326 -317 56 317 203 callsubr
          -123 -695 -24 callgsubr
          55 311 214 -311 rlineto
          149 hlineto
          -246 347 364 348 rlineto
          endchar
        </CharString>
        <CharString name="L">
          -177 0 87 608 -20 hstem
          23 365 375 callsubr
          endchar
        </CharString>
        <CharString name="Lacute">
          -177 0 87 608 -20 hstem
          23 417 375 callsubr
          287 854 -72 callsubr
          endchar
        </CharString>
        <CharString name="Lcaron">
          -158 0 87 384 50 78 96 hstem
          402 69 vstem
          471 695 460 callgsubr
          -96 rlineto
          53 hlineto
          -4 -21 rlineto
          -38 -6 -19 -19 418 callgsubr
          46 42 83 14 hvcurveto
          6 29 1 33 -3 37 rrcurveto
          -211 hmoveto
          432 callsubr
        </CharString>
        <CharString name="Ldot">
          -177 0 87 218 120 270 -20 hstemhm
          23 403 -121 120 hintmask 11110000
          23 hmoveto
          349 hlineto
          16 87 rlineto
          -235 hlineto
          107 608 203 callsubr
          hintmask 11101000
          209 -390 -53 callsubr
        </CharString>
        <CharString name="Lslash">
          -177 0 87 608 -20 hstem
          4 395 vstem
          272 695 rmoveto
          -115 hlineto
          -53 -302 -82 -25 -18 -105 81 25 -51 -288 rlineto
          349 hlineto
          16 87 rlineto
          -234 hlineto
          42 238 97 30 19 106 -97 -30 rlineto
          endchar
        </CharString>
        <CharString name="M">
          261 416 callsubr
          23 855 522 callgsubr
          84 476 129 -476 rlineto
          79 hlineto
          296 476 -84 -476 -24 callgsubr
          420 callsubr
          -122 hlineto
          -339 -545 -148 545 rlineto
          endchar
        </CharString>
        <CharString name="N">
          100 21 -21 696 -20 hstem
          23 694 vstem
          717 696 14 callsubr
          endchar
        </CharString>
        <CharString name="NULL">
          -621 endchar
        </CharString>
        <CharString name="Nacute">
          100 21 -21 696 -20 hstem
          23 694 vstem
          717 696 14 callsubr
          -15 941 -72 callsubr
          endchar
        </CharString>
        <CharString name="Ncaron">
          100 21 -21 696 -20 hstem
          23 694 vstem
          717 696 14 callsubr
          20 913 -41 callgsubr
        </CharString>
        <CharString name="Ntilde">
          100 21 -21 696 -20 75 483 callgsubr
          23 694 hintmask 11011000
          717 696 14 callsubr
          -314 753 -19 callsubr
        </CharString>
        <CharString name="O">
          437 callsubr
          hstem
          583 callsubr
          vstem
          -99 callgsubr
          endchar
        </CharString>
        <CharString name="OE">
          462 -7 103 -96 89 218 88 205 104 -98 89 hstemhm
          45 118 hintmask 01101100
          803 606 rmoveto
          270 hlineto
          275 callsubr
          -19 -106 rlineto
          hintmask 10110100
          76 -44 -79 39 -105 hhcurveto
          -185 -185 -145 -210 -37 hvcurveto
          -209 -37 133 -147 187 hhcurveto
          104 92 39 79 72 hvcurveto
          hintmask 01101100
          -20 -111 rlineto
          384 360 callsubr
          -270 hlineto
          38 218 rlineto
          240 147 callgsubr
          -240 hlineto
          hintmask 10110100
          -598 -46 rmoveto
          153 27 117 98 138 hhcurveto
          138 83 -98 -153 -27 hvcurveto
          -153 -27 -118 -100 -138 hhcurveto
          -138 -82 100 153 27 hvcurveto
          endchar
        </CharString>
        <CharString name="Oacute">
          437 callsubr
          hstem
          583 callsubr
          vstem
          -99 callgsubr
          248 853 -72 callsubr
          endchar
        </CharString>
        <CharString name="Ocircumflex">
          437 callsubr
          hstem
          583 callsubr
          vstem
          -99 callgsubr
          252 653 -31 callgsubr
          endchar
        </CharString>
        <CharString name="Odieresis">
          437 callsubr
          hstemhm
          47 118 171 294 callsubr
          9 118 hintmask 11110100
          -99 callgsubr
          28 677 205 callsubr
        </CharString>
        <CharString name="Ograve">
          437 callsubr
          hstem
          583 callsubr
          vstem
          -99 callgsubr
          27 853 30 callgsubr
          endchar
        </CharString>
        <CharString name="Ohungarumlaut">
          437 callsubr
          50 170 hstem
          583 callsubr
          vstem
          -99 callgsubr
          357 828 115 callsubr
        </CharString>
        <CharString name="Omacron">
          437 callsubr
          84 85 hstem
          583 callsubr
          vstem
          -99 callgsubr
          -52 777 63 callsubr
          endchar
        </CharString>
        <CharString name="Oslash">
          163 -7 103 -75 -21 553 -20 67 104 -8 -20 hstemhm
          583 callsubr
          hintmask 10110110
          343 -7 rmoveto
          239 175 177 242 67 -18 59 -32 47 hvcurveto
          hintmask 10101110
          122 111 rlineto
          -91 hlineto
          hintmask 01110110
          -71 -65 rlineto
          46 -52 -70 27 -85 hhcurveto
          -237 -176 -177 -241 -67 18 -59 32 -48 hvcurveto
          -123 -112 rlineto
          91 hlineto
          hintmask 10110110
          73 66 rlineto
          -46 51 70 -27 84 hhcurveto
          -178 300 rmoveto
          167 111 140 168 58 46 -17 -30 33 vhcurveto
          -395 -360 rlineto
          -14 28 -7 34 38 vvcurveto
          194 -197 rmoveto
          -57 -47 17 30 -33 hvcurveto
          396 361 rlineto
          14 -28 7 -34 -38 vvcurveto
          -166 -112 -142 -168 vhcurveto
          endchar
        </CharString>
        <CharString name="Otilde">
          437 callsubr
          55 483 callgsubr
          583 callsubr
          hintmask 11011100
          -99 callgsubr
          -51 665 57 callgsubr
          hintmask 11101100
          -60 callsubr
          hintmask 11011100
          27 callgsubr
        </CharString>
        <CharString name="P">
          -26 21 -21 282 89 235 89 hstem
          481 118 vstem
          329 371 rmoveto
          475 callgsubr
          -70 -12 -48 -47 -89 hhcurveto
          266 117 rmoveto
          113 20 -64 94 -165 hhcurveto
          -240 hlineto
          -123 -695 -24 callgsubr
          50 282 494 callsubr
          17 hvcurveto
          endchar
        </CharString>
        <CharString name="Q">
          166 418 callsubr
          hstem
          583 callsubr
          vstem
          359 96 rmoveto
          -122 -72 76 121 167 111 140 168 123 72 -75 -121 -166 -112 -142 -168 hvcurveto
          -16 -103 rmoveto
          35 33 4 7 31 hvcurveto
          97 -130 rlineto
          145 hlineto
          -132 171 rlineto
          125 70 80 134 163 vvcurveto
          171 -117 121 -180 -237 -176 -177 -241 -172 118 -121 178 vhcurveto
          endchar
        </CharString>
        <CharString name="R">
          -29 callgsubr
          endchar
        </CharString>
        <CharString name="Racute">
          -29 callgsubr
          148 246 -72 callsubr
          endchar
        </CharString>
        <CharString name="Rcaron">
          -29 callgsubr
          183 218 -41 callgsubr
        </CharString>
        <CharString name="S">
          -28 callgsubr
          endchar
        </CharString>
        <CharString name="Sacute">
          -28 callgsubr
          246 948 -72 callsubr
          endchar
        </CharString>
        <CharString name="Scaron">
          -28 callgsubr
          281 920 -41 callgsubr
        </CharString>
        <CharString name="T">
          -57 21 189 callgsubr
          114 336 callgsubr
          endchar
        </CharString>
        <CharString name="Tcaron">
          -57 21 189 callgsubr
          114 336 callgsubr
          -60 218 -41 callgsubr
        </CharString>
        <CharString name="Thorn">
          -26 0 231 -89 89 235 89 -89 230 hstemhm
          23 551 hintmask 10101000
          304 231 rmoveto
          -126 hlineto
          42 235 rlineto
          126 hlineto
          89 31 -47 -71 -12 hvcurveto
          -70 -13 -48 -47 -89 hhcurveto
          hintmask 01101000
          267 117 rmoveto
          113 20 -65 94 -165 hhcurveto
          -127 hlineto
          hintmask 10011000
          25 141 rlineto
          -113 hlineto
          -123 -696 -24 callgsubr
          hintmask 01101000
          25 142 494 callsubr
          18 hvcurveto
          endchar
        </CharString>
        <CharString name="U">
          303 callsubr
          hstem
          62 115 vstem
          -95 callgsubr
          endchar
        </CharString>
        <CharString name="Uacute">
          303 callsubr
          hstem
          62 115 vstem
          -95 callgsubr
          304 246 -72 callsubr
          endchar
        </CharString>
        <CharString name="Ubreve">
          303 callsubr
          78 89 hstem
          62 115 126 67 vstem
          -95 callgsubr
          343 197 rmoveto
          314 callgsubr
          38 callgsubr
          95 65 56 83 15 hvcurveto
          endchar
        </CharString>
        <CharString name="Ucircumflex">
          303 callsubr
          hstem
          62 115 vstem
          -95 callgsubr
          308 46 -31 callgsubr
          endchar
        </CharString>
        <CharString name="Udieresis">
          303 callsubr
          hstem
          62 115 115 294 callsubr
          vstem
          -95 callgsubr
          84 70 -89 callgsubr
          endchar
        </CharString>
        <CharString name="Ugrave">
          303 callsubr
          hstem
          62 115 vstem
          -95 callgsubr
          83 246 30 callgsubr
          endchar
        </CharString>
        <CharString name="Uhungarumlaut">
          303 callsubr
          71 170 hstem
          62 115 vstem
          -95 callgsubr
          413 221 115 callsubr
        </CharString>
        <CharString name="Umacron">
          303 callsubr
          105 85 hstem
          62 115 vstem
          -95 callgsubr
          4 170 63 callsubr
          endchar
        </CharString>
        <CharString name="Uogonek">
          69 -211 74 -74 306 -75 -21 696 -20 hstemhm
          62 115 hintmask 10111000
          145 695 rmoveto
          -78 -441 -26 -149 73 -83 112 -23 rlinecurve
          -48 -32 -23 -34 216 callgsubr
          1 vlineto
          116 24 102 83 26 146 78 441 rcurveline
          -114 hlineto
          543 callsubr
          hintmask 01011000
          -108 -19 -70 -51 -97 hhcurveto
          -96 -52 51 108 19 387 callsubr
          endchar
        </CharString>
        <CharString name="Uring">
          303 callsubr
          75 59 102 58 hstem
          62 115 vstem
          -95 callgsubr
          77 164 -7 callsubr
          endchar
        </CharString>
        <CharString name="Utilde">
          303 callsubr
          76 483 callgsubr
          62 115 hintmask 11011000
          -95 callgsubr
          5 58 -19 callsubr
        </CharString>
        <CharString name="V">
          73 0 118 -97 510 callgsubr
          90 655 hintmask 01110000
          90 695 rmoveto
          139 -695 rlineto
          132 hlineto
          384 695 rlineto
          -121 hlineto
          hintmask 10110000
          -309 -577 -103 577 rlineto
          endchar
        </CharString>
        <CharString name="W">
          -51 callsubr
          endchar
        </CharString>
        <CharString name="Wacute">
          -51 callsubr
          539 251 -72 callsubr
          endchar
        </CharString>
        <CharString name="Wcircumflex">
          -51 callsubr
          480 51 -31 callgsubr
          endchar
        </CharString>
        <CharString name="Wdieresis">
          378 -1 130 -129 132 -112 -21 22 510 callgsubr
          90 961 -635 294 callsubr
          hintmask 00011100
          90 695 rmoveto
          hintmask 00101100
          74 -696 128 1 247 526 rlineto
          hintmask 00011100
          54 -526 441 callsubr
          329 695 rlineto
          -122 hlineto
          hintmask 01001100
          -244 -563 -46 563 rlineto
          -128 hlineto
          hintmask 10001100
          -256 -566 -44 566 rlineto
          hintmask 00011011
          256 72 -89 callgsubr
          endchar
        </CharString>
        <CharString name="Wgrave">
          -51 callsubr
          227 246 30 callgsubr
          endchar
        </CharString>
        <CharString name="X">
          39 416 callsubr
          -2 684 vstem
          430 hmoveto
          128 hlineto
          -154 347 278 348 rlineto
          -128 hlineto
          -192 -253 -113 253 rlineto
          -128 hlineto
          155 -348 -278 -347 rlineto
          128 hlineto
          192 253 rlineto
          endchar
        </CharString>
        <CharString name="Y">
          -16 416 callsubr
          86 575 vstem
          -16 callgsubr
          endchar
        </CharString>
        <CharString name="Yacute">
          -16 416 callsubr
          86 575 vstem
          -16 callgsubr
          308 246 -72 callsubr
          endchar
        </CharString>
        <CharString name="Ycircumflex">
          -16 416 callsubr
          86 575 vstem
          -16 callgsubr
          312 46 -31 callgsubr
          endchar
        </CharString>
        <CharString name="Ydieresis">
          -16 21 510 callgsubr
          86 575 -411 294 callsubr
          hintmask 11100000
          -16 callgsubr
          hintmask 11011000
          88 70 -89 callgsubr
          endchar
        </CharString>
        <CharString name="Ygrave">
          -16 416 callsubr
          86 575 vstem
          -16 callgsubr
          87 246 30 callgsubr
          endchar
        </CharString>
        <CharString name="Z">
          -63 0 99 497 99 hstem
          -2 581 vstem
          52 callsubr
          endchar
        </CharString>
        <CharString name="Zacute">
          -63 0 99 497 99 hstem
          -2 581 vstem
          52 callsubr
          346 842 -72 callsubr
          endchar
        </CharString>
        <CharString name="Zcaron">
          -63 0 99 497 99 hstem
          -2 581 vstem
          52 callsubr
          381 814 -41 callgsubr
        </CharString>
        <CharString name="Zdotaccent">
          -63 0 99 497 99 70 120 hstemhm
          -2 581 -266 120 hintmask 11010000
          52 callsubr
          hintmask 11101000
          212 666 -53 callsubr
        </CharString>
        <CharString name="a">
          135 callsubr
          -9 588 callgsubr
          hintmask 10101000
          -5 callgsubr
          hintmask 01011000
          71 callsubr
          hintmask 10101000
          -14 -80 rlineto
          45 -26 -56 44 -93 hhcurveto
          -145 76 callsubr
        </CharString>
        <CharString name="a.ss02">
          109 callgsubr
          275 callgsubr
          hintmask 10111100
          380 80 rmoveto
          hintmask 01011100
          -80 callgsubr
          hintmask 10111100
          420 callgsubr
          vhcurveto
          -81 callsubr
        </CharString>
        <CharString name="aacute">
          135 callsubr
          -9 588 callgsubr
          hintmask 10101000
          -5 callgsubr
          hintmask 01011000
          71 callsubr
          hintmask 10101000
          -14 -80 rlineto
          45 -26 -56 44 -93 hhcurveto
          -145 -96 callsubr
          46 520 -72 callsubr
          endchar
        </CharString>
        <CharString name="aacute.ss02">
          109 callgsubr
          275 callgsubr
          hintmask 10111100
          531 519 callsubr
          -134 -619 rmoveto
          hintmask 01011100
          -80 callgsubr
          hintmask 10111100
          420 callgsubr
          vhcurveto
          -81 callsubr
        </CharString>
        <CharString name="abreve">
          135 callsubr
          -9 -20 77 89 -89 161 375 callgsubr
          124 67 hintmask 10101010
          -5 callgsubr
          hintmask 01011010
          71 callsubr
          hintmask 10101010
          -14 -80 rlineto
          45 -26 -56 44 -93 hhcurveto
          -145 -96 callsubr
          85 471 rmoveto
          hintmask 10100110
          314 callgsubr
          hintmask 10101011
          208 callsubr
          hintmask 10100111
          33 callgsubr
          hintmask 10101010
          145 callsubr
        </CharString>
        <CharString name="abreve.ss02">
          109 callgsubr
          41 89 -89 161 hstemhm
          12 120 139 67 88 118 hintmask 1011101110000000
          570 747 rmoveto
          hintmask 1011011110000000
          314 callgsubr
          hintmask 1011101110000000
          208 callsubr
          hintmask 1011011110000000
          33 callgsubr
          hintmask 1011101110000000
          137 callgsubr
          -190 -667 rmoveto
          hintmask 0101101110000000
          -80 callgsubr
          hintmask 1011101110000000
          420 callgsubr
          vhcurveto
          -81 callsubr
        </CharString>
        <CharString name="acircumflex">
          135 callsubr
          -9 -20 237 588 callgsubr
          hintmask 10101100
          -5 callgsubr
          hintmask 01011100
          71 callsubr
          hintmask 10101100
          -14 -80 rlineto
          45 -26 -56 44 -93 hhcurveto
          -145 -96 callsubr
          50 320 -31 callgsubr
          endchar
        </CharString>
        <CharString name="acircumflex.ss02">
          109 callgsubr
          201 -20 275 callgsubr
          hintmask 10111110
          535 596 -31 callgsubr
          -28 -602 rmoveto
          hintmask 01011110
          -80 callgsubr
          hintmask 10111110
          420 callgsubr
          vhcurveto
          -81 callsubr
        </CharString>
        <CharString name="acute">
          -380 590 206 hstem
          62 258 vstem
          320 519 callsubr
          endchar
        </CharString>
        <CharString name="adieresis">
          135 callsubr
          -9 -20 89 120 375 callgsubr
          113 294 callsubr
          hintmask 10101100
          -5 callgsubr
          hintmask 01011100
          71 callsubr
          hintmask 10101100
          -14 -80 rlineto
          45 -26 -56 44 -93 hhcurveto
          -145 -96 callsubr
          hintmask 10101111
          -174 344 -89 callgsubr
          endchar
        </CharString>
        <CharString name="adieresis.ss02">
          109 callgsubr
          53 120 hstemhm
          12 120 128 122 44 118 -112 122 hintmask 1011111100000000
          311 620 -44 callgsubr
          hintmask 1011111010000000
          -66 callgsubr
          -103 -540 rmoveto
          hintmask 0101111100000000
          -80 callgsubr
          hintmask 1011111100000000
          420 callgsubr
          vhcurveto
          -156 hlineto
          -143 -112 -75 -117 -88 64 -56 97 hvcurveto
          hintmask 1011111010000000
          88 82 42 48 37 hvcurveto
          hintmask 1011111100000000
          -161 9 rmoveto
          -56 -31 28 42 44 41 42 80 hvcurveto
          156 -3 hlineto
          -106 -19 -102 -47 -69 hhcurveto
          endchar
        </CharString>
        <CharString name="ae">
          464 -38 callsubr
          endchar
        </CharString>
        <CharString name="agrave">
          135 callsubr
          -9 -20 168 588 callgsubr
          hintmask 10101100
          -5 callgsubr
          hintmask 01011100
          71 callsubr
          hintmask 10101100
          -14 -80 rlineto
          45 -26 -56 44 -93 hhcurveto
          -145 -96 callsubr
          -175 520 30 callgsubr
          endchar
        </CharString>
        <CharString name="agrave.ss02">
          109 callgsubr
          132 -20 275 callgsubr
          hintmask 10111110
          310 796 30 callgsubr
          -129 -594 rmoveto
          hintmask 01011110
          -80 callgsubr
          hintmask 10111110
          420 callgsubr
          vhcurveto
          -81 callsubr
        </CharString>
        <CharString name="amacron">
          135 callsubr
          -9 -20 104 85 375 callgsubr
          hintmask 10101100
          -5 callgsubr
          hintmask 01011100
          71 callsubr
          hintmask 10101100
          -14 -80 rlineto
          45 -26 -56 44 -93 hhcurveto
          -145 -96 callsubr
          -254 444 63 callsubr
          endchar
        </CharString>
        <CharString name="amacron.ss02">
          109 callgsubr
          68 85 275 callgsubr
          hintmask 10111110
          231 720 63 callsubr
          -217 -640 rmoveto
          hintmask 01011110
          -80 callgsubr
          hintmask 10111110
          420 callgsubr
          vhcurveto
          -81 callsubr
        </CharString>
        <CharString name="ampersand">
          154 -13 97 -84 363 255 93 hstemhm
          19 117 55 116 149 116 hintmask 01111100
          455 550 rmoveto
          114 hlineto
          2 10 1 9 9 vvcurveto
          73 -56 60 -103 -132 -90 -81 -116 -32 10 -29 23 -35 vhcurveto
          -121 -47 -84 -91 -115 vvcurveto
          hintmask 10111100
          -112 83 -66 134 97 83 32 67 78 vhcurveto
          hintmask 01111100
          71 -86 rlineto
          149 hlineto
          -140 168 11 13 11 14 11 14 rlinecurve
          117 154 rlineto
          -123 hlineto
          -92 -117 -152 183 rlineto
          -33 45 -17 29 31 vvcurveto
          44 36 40 52 38 23 -21 -33 -5 0 -4 -1 -5 vhcurveto
          hintmask 10111100
          -202 -466 rmoveto
          -73 -44 42 57 76 59 55 86 32 hvcurveto
          152 -185 rlineto
          -51 -57 -58 -26 -65 hhcurveto
          endchar
        </CharString>
        <CharString name="ampersand.ss03">
          42 -8 94 -65 -21 321 89 120 210 -96 96 hstemhm
          16 598 hintmask 10101100
          415 740 rmoveto
          -121 -81 -82 -85 -15 hvcurveto
          -9 -51 15 -46 34 -58 5 -8 rcurveline
          -102 -6 -100 -83 -21 -118 rrcurveto
          -123 -22 79 -88 116 hhcurveto
          90 84 56 75 42 hvcurveto
          hintmask 01101100
          69 -123 rlineto
          136 hlineto
          -280 482 -23 39 -4 23 5 27 rlinecurve
          40 7 35 33 44 hhcurveto
          45 24 -32 -42 -7 hvcurveto
          hintmask 10110100
          -2 -12 -6 -17 -7 -11 rrcurveto
          112 hlineto
          8 15 7 19 3 17 rrcurveto
          hintmask 10101100
          80 14 -53 79 -121 hhcurveto
          -294 -536 rmoveto
          66 12 57 51 62 hhcurveto
          61 41 -51 -66 -12 hvcurveto
          -66 -11 -59 -52 -61 hhcurveto
          -62 -39 52 66 11 hvcurveto
          endchar
        </CharString>
        <CharString name="aogonek">
          57 -211 74 128 544 callgsubr
          -5 callgsubr
          -12 -66 -67 -37 -31 34 callsubr
          53 25 rcurveline
          hintmask 11011000
          97 551 280 callgsubr
          hintmask 11101000
          -14 -80 rlineto
          45 -26 -56 44 -93 hhcurveto
          -145 76 callsubr
        </CharString>
        <CharString name="aogonek.ss02">
          -12 -211 74 127 99 156 81 147 94 hstem
          12 120 294 118 vstem
          380 80 rmoveto
          -11 -64 -67 -37 -30 34 callsubr
          53 25 rcurveline
          57 323 rlineto
          3 19 2 18 16 vvcurveto
          123 -88 68 -114 -145 -94 -86 -119 -37 vhcurveto
          112 hlineto
          72 24 54 39 64 hhcurveto
          69 37 -41 -70 420 callgsubr
          hvcurveto
          -81 callsubr
        </CharString>
        <CharString name="apostrophemod.ss01">
          -446 576 49 78 97 hstem
          152.5 255 callgsubr
          vstem
          221 800 rmoveto
          115 callgsubr
        </CharString>
        <CharString name="approxequal">
          -68 178 102 -37 102 55 102 -37 102 hstemhm
          26 510 hintmask 01011000
          26 180 rmoveto
          540 callgsubr
          hintmask 10011000
          237 callsubr
          hintmask 01011000
          403 callsubr
          222 vmoveto
          540 callgsubr
          hintmask 01101000
          237 callsubr
          hintmask 01011000
          403 callsubr
          endchar
        </CharString>
        <CharString name="aring">
          135 callsubr
          -9 -20 74 59 102 58 375 callgsubr
          hintmask 10101110
          -5 callgsubr
          hintmask 01011110
          71 callsubr
          hintmask 10101110
          -14 -80 rlineto
          45 -26 -56 44 -93 hhcurveto
          -145 -96 callsubr
          -181 438 -7 callsubr
          endchar
        </CharString>
        <CharString name="aring.ss02">
          109 callgsubr
          38 59 102 58 275 callgsubr
          hintmask 10111111
          304 714 -7 callsubr
          -85 -635 rmoveto
          hintmask 01011111
          -80 callgsubr
          hintmask 10111111
          420 callgsubr
          vhcurveto
          -81 callsubr
        </CharString>
        <CharString name="asciicircum">
          33 168 528 0 -20 hstemhm
          14 583 hintmask 01100000
          375 558 rmoveto
          hintmask 10100000
          103 -390 rlineto
          119 hlineto
          -145 528 rlineto
          -108 hlineto
          -330 -528 rlineto
          118 hlineto
          endchar
        </CharString>
        <CharString name="asciitilde">
          -68 236 102 -37 102 hstemhm
          26 510 hintmask 01100000
          26 238 rmoveto
          540 callgsubr
          hintmask 10100000
          237 callsubr
          hintmask 01100000
          403 callsubr
          endchar
        </CharString>
        <CharString name="asterisk">
          -117 360 376 hstem
          262 50 vstem
          329 590 rmoveto
          48 146 rlineto
          -93 hlineto
          -6 -146 -101 90 -60 -82 127 -49 -145 -51 33 -85 130 92 -44 -145 rlineto
          92 hlineto
          4 145 99 -90 60 82 -128 51 146 51 -31 80 rlineto
          endchar
        </CharString>
        <CharString name="at">
          405 -203 80 116 76 -76 88 285 87 114 79 hstemhm
          70 93 108 106 244 75 167 92 hintmask 1101111110000000
          433 -203 rmoveto
          72 69 12 27 63 hvcurveto
          -15 76 rlineto
          -25 -51 -61 -10 -54 hhcurveto
          -186 -107 90 172 243 172 185 239 188 101 -92 -169 -96 -37 -141 -82 -50 -3 35 54 8 hvcurveto
          50 286 rlineto
          -99 hlineto
          -9 -50 rlineto
          39 -23 -40 20 -59 hhcurveto
          -147 -101 -136 -151 hvcurveto
          hintmask 1011111110000000
          -105 60 -68 104 69 66 34 52 41 vhcurveto
          hintmask 1101111110000000
          -53 9 38 -33 69 hhcurveto
          146 82 163 155 199 -135 136 -232 -303 -215 -227 -289 -203 143 -130 220 hvcurveto
          87 569 rmoveto
          67 34 -48 -61 hvcurveto
          hintmask 1011111110000000
          -92 -65 -84 -86 -65 -28 43 59 vhcurveto
          hintmask 1101111110000000
          90 53 93 90 vhcurveto
          endchar
        </CharString>
        <CharString name="atilde">
          135 callsubr
          -9 -20 75 75 -30 74 375 callgsubr
          hintmask 10100110
          -5 callgsubr
          hintmask 01010110
          71 callsubr
          hintmask 10100110
          -14 -80 rlineto
          45 -26 -56 44 -93 hhcurveto
          -145 -96 callsubr
          -253 332 57 callgsubr
          hintmask 10101010
          -60 callsubr
          hintmask 10100110
          27 callgsubr
        </CharString>
        <CharString name="atilde.ss02">
          109 callgsubr
          39 75 -30 74 275 callgsubr
          hintmask 10110111
          232 608 57 callgsubr
          hintmask 10111011
          -60 callsubr
          hintmask 10110111
          -40 -14 44 -54 hhcurveto
          -58 -51 -38 -79 -24 hvcurveto
          148 -528 rmoveto
          hintmask 01010111
          -80 callgsubr
          hintmask 10110111
          420 callgsubr
          vhcurveto
          -81 callsubr
        </CharString>
        <CharString name="b">
          135 callsubr
          180 -20 hstemhm
          525 118 hintmask 10111000
          220 469 rmoveto
          48 271 203 callsubr
          hintmask 01111000
          177 callgsubr
          hintmask 10111000
          14 80 rlineto
          -48 28 58 -41 405 callsubr
          170 30 -93 112 -146 hhcurveto
          -87 -76 -41 -50 -45 hvcurveto
          301 -191 133 callgsubr
        </CharString>
        <CharString name="backslash">
          -89 -175 1119 hstem
          195 174 vstem
          369 -175 rmoveto
          -62 1119 rlineto
          -112 hlineto
          62 -1119 rlineto
          endchar
        </CharString>
        <CharString name="bar">
          -297 -113 914 hstem
          33 276 vstem
          309 801 rmoveto
          -114 hlineto
          -162 -914 -24 callgsubr
          endchar
        </CharString>
        <CharString name="braceleft">
          -105 -188 99 926 99 hstemhm
          150 114 -43 111 hintmask 11010000
          136 331 rmoveto
          55 -6 30 -21 -42 vvcurveto
          hintmask 11100000
          -50 -71 -211 -72 vvcurveto
          -76 50 -41 77 vhcurveto
          67 hlineto
          18 99 rlineto
          -44 hlineto
          -36 -18 13 25 hvcurveto
          hintmask 11010000
          43 68 228 63 vvcurveto
          49 -25 29 -59 12 vhcurveto
          1 2 75 15 40 49 11 66 rlinecurve
          16 86 4 116 12 69 rrcurveto
          43 8 24 18 42 hhcurveto
          44 hlineto
          17 99 rlineto
          -67 hlineto
          -88 -72 -54 -97 -17 hvcurveto
          -15 -83 -3 -117 -14 -76 -9 -52 -41 -33 -65 -7 rrcurveto
          endchar
        </CharString>
        <CharString name="braceright">
          -105 -188 99 926 99 hstemhm
          8 407 -130 116 hintmask 11100000
          400 331 rmoveto
          15 86 -63 7 -29 33 9 52 rlinecurve
          14 76 37 117 15 83 rrcurveto
          hintmask 11010000
          97 17 -54 54 -88 hhcurveto
          -67 hlineto
          -17 -99 rlineto
          44 hlineto
          42 18 -18 -43 -8 hvcurveto
          -12 -69 -36 -116 -16 -86 -11 -66 22 -49 71 -15 -1 -2 rcurveline
          -75 -15 -40 -49 -12 -66 -15 -86 -4 -116 -13 -69 rrcurveto
          -43 -7 -24 -18 -42 hhcurveto
          -44 hlineto
          -18 -99 rlineto
          67 hlineto
          88 73 54 97 17 hvcurveto
          15 83 3 117 14 76 rrcurveto
          hintmask 11100000
          9 52 41 33 65 7 rrcurveto
          endchar
        </CharString>
        <CharString name="bracketleft">
          -136 -176 95 931 94 hstem
          65 406 vstem
          263 944 rmoveto
          -198 -1120 rlineto
          208 hlineto
          17 95 rlineto
          -101 hlineto
          164 931 rlineto
          101 hlineto
          17 94 rlineto
          endchar
        </CharString>
        <CharString name="bracketright">
          -137 -186 95 931 94 hstem
          47 405 vstem
          452 934 rmoveto
          -208 hlineto
          -16 -94 rlineto
          101 hlineto
          -165 -931 rlineto
          -101 hlineto
          -16 -95 rlineto
          208 hlineto
          endchar
        </CharString>
        <CharString name="breve">
          -300 608 89 -89 161 hstemhm
          88 307 -303 67 hintmask 10100000
          391 747 rmoveto
          hintmask 01100000
          314 callgsubr
          hintmask 10010000
          208 callsubr
          hintmask 01010000
          33 callgsubr
          hintmask 10100000
          145 callsubr
        </CharString>
        <CharString name="brokenbar">
          -297 -113 388 138 388 hstem
          33 276 vstem
          216 275 rmoveto
          -114 hlineto
          -69 -388 -24 callgsubr
          -21 526 rmoveto
          114 hlineto
          69 388 203 callsubr
          endchar
        </CharString>
        <CharString name="bullet">
          -159 203 261 hstem
          105 266 vstem
          214 203 rmoveto
          74 68 57 73 13 hvcurveto
          74 13 -48 57 -74 hhcurveto
          -72 -68 -57 -74 -13 hvcurveto
          -73 -13 48 -57 72 hhcurveto
          endchar
        </CharString>
        <CharString name="c">
          -21 314 callsubr
          hstem
          28 118 vstem
          -39 callsubr
          endchar
        </CharString>
        <CharString name="cacute">
          -21 314 callsubr
          hstem
          28 118 vstem
          -39 callsubr
          458 520 -72 callsubr
          endchar
        </CharString>
        <CharString name="caron">
          -315 768 -20 hstem
          78 302 vstem
          380 768 -41 callgsubr
        </CharString>
        <CharString name="ccaron">
          -21 314 callsubr
          208 -20 hstem
          28 118 vstem
          -39 callsubr
          493 492 -41 callgsubr
        </CharString>
        <CharString name="ccedilla">
          -21 541 callsubr
          41 94 -73 -21 22 -21 470 96 hstemhm
          28 118 hintmask 11001110
          34 276 rmoveto
          -28 -158 75 -107 133 -17 -20 -110 rcurveline
          8 callsubr
          hintmask 11010110
          7 41 rlineto
          hintmask 11100110
          118 11 88 71 46 99 rrcurveto
          -123 hlineto
          -57 -31 -47 -30 -68 hhcurveto
          -92 -49 68 121 21 hvcurveto
          120 21 73 68 92 hhcurveto
          68 38 -34 -53 10 hvcurveto
          123 hlineto
          116 -11 -76 67 -135 hhcurveto
          hintmask 11001110
          -158 -132 -112 -172 -30 hvcurveto
          endchar
        </CharString>
        <CharString name="cdotaccent">
          -21 314 callsubr
          60 120 0 -20 hstemhm
          28 118 162 120 hintmask 11011000
          -39 callsubr
          hintmask 11101100
          324 344 -53 callsubr
        </CharString>
        <CharString name="cedilla">
          -342 -262 72 74 123 hstem
          -88 280 vstem
          79 -48 rmoveto
          10 55 rlineto
          -75 hlineto
          -22 -123 rlineto
          8 callsubr
          endchar
        </CharString>
        <CharString name="cent">
          69 -88 180 -93 93 -72 -21 428 93 -93 180 hstemhm
          55 109 hintmask 00101100
          351 607 rmoveto
          -15 -87 -156 -14 -96 -111 -24 -136 rlinecurve
          -23 -135 57 -111 150 -14 rrcurveto
          hintmask 10001100
          -15 -87 rlineto
          65 hlineto
          hintmask 01001100
          15 88 118 11 90 70 27 93 rlinecurve
          -106 hlineto
          -49 -24 -45 -33 -75 hhcurveto
          -94 -51 62 105 19 hvcurveto
          105 19 72 63 94 hhcurveto
          75 34 -33 -49 6 hvcurveto
          106 hlineto
          hintmask 00110100
          6 93 -66 71 -113 11 rrcurveto
          hintmask 00101100
          15 87 rlineto
          endchar
        </CharString>
        <CharString name="circumflex">
          -315 768 -20 hstem
          63 302 vstem
          349 596 -31 callgsubr
          endchar
        </CharString>
        <CharString name="colon">
          -376 563 callsubr
          420 146 0 -20 hstemhm
          8 145 hintmask 01011000
          68 -7 397 callgsubr
          hintmask 01011000
          -41 -7 26 -32 41 hhcurveto
          hintmask 01101000
          420 vmoveto
          346 callgsubr
        </CharString>
        <CharString name="colon.ss01">
          -342 0 132 287 132 hstem
          18 226 vstem
          42 356 callgsubr
          -56 419 rmoveto
          -23 -132 441 callsubr
          23 132 rlineto
          endchar
        </CharString>
        <CharString name="comma">
          -396 -139 276 hstem
          -71 243 vstem
          48 137 493 callgsubr
        </CharString>
        <CharString name="comma.ss01">
          -412 -138 55 88 109 hstem
          40 77 vstem
          117 235 callgsubr
          endchar
        </CharString>
        <CharString name="copyright">
          168 -9 45 -45 128 147 165 147 126 -45 45 hstemhm
          49 50 -50 130 531 50 hintmask 10101101
          467 704 rmoveto
          -207 -167 -147 -209 -37 hvcurveto
          -209 -37 116 -148 207 hhcurveto
          206 168 148 209 37 hvcurveto
          209 37 -117 147 -206 hhcurveto
          -7 -45 rmoveto
          183 93 -122 -189 -33 hvcurveto
          -187 -33 -137 -125 -183 hhcurveto
          -184 -93 125 187 33 hvcurveto
          189 33 137 122 184 hhcurveto
          hintmask 01110011
          -18 -81 rmoveto
          104 67 -54 -93 8 hvcurveto
          -104 hlineto
          43 -6 -33 23 -50 hhcurveto
          -69 -57 -50 -98 -17 hvcurveto
          -98 -17 39 -51 69 hhcurveto
          56 33 25 41 23 hvcurveto
          104 hlineto
          -86 -40 -87 -61 -104 hhcurveto
          -122 -80 90 140 25 hvcurveto
          140 25 111 89 122 hhcurveto
          endchar
        </CharString>
        <CharString name="currency">
          -73 199 67 223 66 hstem
          101 90 196 91 vstem
          308 489 rmoveto
          50 39 -38 -74 -13 hvcurveto
          -74 -13 -55 -37 -49 hhcurveto
          -50 -36 37 74 13 hvcurveto
          74 13 51 38 50 hhcurveto
          107 -325 rmoveto
          59 51 -48 59 24 28 18 35 7 40 rlinecurve
          7 41 -5 35 -15 28 70 60 rcurveline
          -41 51 -73 -62 rlineto
          16 -26 -34 9 -38 hhcurveto
          -38 -36 -9 -16 -31 hvcurveto
          -51 62 -60 -51 49 -59 -24 -28 -18 -36 -7 -41 rlinecurve
          -7 -40 4 -35 14 -28 -69 -59 rcurveline
          42 -51 71 60 rlineto
          -16 25 33 -9 38 hhcurveto
          39 37 9 17 33 hvcurveto
          endchar
        </CharString>
        <CharString name="d">
          135 callsubr
          180 588 callgsubr
          hintmask 10111000
          429 callsubr
          hintmask 01111000
          365 callgsubr
          hintmask 10111000
          19 callgsubr
        </CharString>
        <CharString name="dagger">
          -37 -241 -21 729 84 hstem
          79 501 vstem
          580 551 rmoveto
          530 callsubr
          -197 10 -15 -89 200 10 -142 -734 -24 callgsubr
          118 734 196 -10 rlineto
          endchar
        </CharString>
        <CharString name="daggerdbl">
          -36 -241 -21 238 79 412 84 hstem
          -7 587 vstem
          565 462 rmoveto
          15 89 530 callsubr
          -196 10 -15 -89 199 10 -75 -422 -195 10 -16 -89 199 10 -55 -243 -24 callgsubr
          31 243 196 -10 16 89 -200 -10 75 422 rlineto
          endchar
        </CharString>
        <CharString name="danda">
          -321 21 -21 741 -20 hstem
          89 234 vstem
          219 741 rmoveto
          410 callgsubr
          endchar
        </CharString>
        <CharString name="dcaron">
          160 -9 99 -69 513 callsubr
          -44 50 77 97 375 callgsubr
          620 69 hintmask 10101110
          836 740 460 callgsubr
          -97 rlineto
          53 hlineto
          hintmask 10011110
          -4 -21 rlineto
          -37 -7 -18 -19 -34 459 callsubr
          75 46 42 82 14 hvcurveto
          hintmask 10101110
          5 30 1 33 -2 37 rrcurveto
          -802 -462 rmoveto
          410 callsubr
          90 73 42 50 44 hvcurveto
          hintmask 01101110
          365 callgsubr
          hintmask 10101110
          19 callgsubr
        </CharString>
        <CharString name="dcroat">
          135 callsubr
          30 66 -66 150 375 callgsubr
          hintmask 10100100
          429 callsubr
          hintmask 01101100
          -15 -83 374 callgsubr
          104 590 rlineto
          59 hlineto
          hintmask 10110100
          12 66 rlineto
          -59 hlineto
          hintmask 10101100
          15 84 280 callgsubr
          hintmask 10110100
          -15 -84 rlineto
          -82 hlineto
          hintmask 10101100
          -12 -66 rlineto
          82 hlineto
          hintmask 10100100
          -20 -116 rlineto
          52 -33 -70 34 -72 hhcurveto
          19 callgsubr
        </CharString>
        <CharString name="degree">
          -194 347 67 223 65 hstem
          66 90 196 91 vstem
          69 525 rmoveto
          -108 -19 63 -70 108 hhcurveto
          107 93 70 108 19 hvcurveto
          109 19 -67 68 -106 hhcurveto
          -107 -91 -68 -109 -19 hvcurveto
          280 hmoveto
          -75 -13 -55 -36 -49 hhcurveto
          -50 -36 36 75 13 hvcurveto
          74 13 52 38 49 hhcurveto
          50 39 -38 -74 -13 hvcurveto
          endchar
        </CharString>
        <CharString name="dieresis">
          -309 620 120 hstem
          77 294 callsubr
          vstem
          128 620 -89 callgsubr
          endchar
        </CharString>
        <CharString name="divide">
          58 75 146 90 101 93 146 hstemhm
          93 528 -387 145 -65 145 hintmask 01010000
          524 callsubr
          hintmask 11001000
          -327 -337 rmoveto
          -53 callgsubr
          hintmask 01100100
          80 430 rmoveto
          346 callgsubr
        </CharString>
        <CharString name="divide.ss01">
          58 82 133 96 101 96 132 hstem
          93 528 vstem
          524 callsubr
          -354 -197 rmoveto
          -23 -133 441 callsubr
          23 133 rlineto
          -54 425 rmoveto
          -23 -132 441 callsubr
          23 132 rlineto
          endchar
        </CharString>
        <CharString name="dollar">
          29 -87 272 -191 191 -170 -21 523 267 -81 -20 hstemhm
          38 125 -125 493 -438 438 -77 122 hintmask 0011000100000000
          358 784 rmoveto
          -14 -81 -128 -11 -100 -77 -19 -113 rlinecurve
          -25 -142 106 -27 96 -25 rrcurveto
          hintmask 0100110010000000
          -39 -220 -56 9 -20 38 4 50 rlinecurve
          -122 hlineto
          -20 -113 76 -68 121 -10 rrcurveto
          hintmask 1000101000000000
          -14 -81 rlineto
          65 hlineto
          14 82 137 13 90 94 17 96 rlinecurve
          25 140 -104 28 -95 24 rrcurveto
          hintmask 0011010010000000
          39 216 44 -13 21 -36 -3 -40 rlinecurve
          122 hlineto
          hintmask 0010110010000000
          11 112 -66 63 -112 11 rrcurveto
          hintmask 0011010010000000
          14 81 rlineto
          -12 -592 rmoveto
          -9 -52 -41 -41 -61 -11 36 203 rcurveline
          50 -17 35 -25 -10 -57 rrcurveto
          -197 316 rmoveto
          10 62 47 32 56 7 -36 -202 rcurveline
          -51 17 -36 25 10 59 rrcurveto
          endchar
        </CharString>
        <CharString name="dotaccent">
          -481 620 120 hstem
          78 120 vstem
          128 620 -53 callsubr
        </CharString>
        <CharString name="dotlessi">
          252 callgsubr
          hstem
          23 211 vstem
          31 callgsubr
          endchar
        </CharString>
        <CharString name="dottedcircle">
          30 -9 84 -70 84 -52 84 -40 84 -32 84 -23 84 -25 84 -22 84 -32 84 -37 84 -57 84 -69 84 hstemhm
          50 86 -71 86 -56 86 -40 86 -34 86 -21 86 -27 86 -24 86 -33 86 -47 86 -52 86 -76 86 hintmask 000100001000001000000100
          557 409 -23 callgsubr
          -376 -286 -23 callgsubr
          hintmask 010001000000100010000000
          98 -76 -23 callgsubr
          -143 189 -23 callgsubr
          hintmask 100000010000010000100000
          267 -203 -23 callgsubr
          -252 324 -23 callgsubr
          hintmask 001000000100000100001000
          367 -278 -23 callgsubr
          -291 377 -23 callgsubr
          hintmask 000010000001000001000010
          364 -281 -23 callgsubr
          -247 323 -23 callgsubr
          hintmask 000000100010000000010001
          257 -203 -23 callgsubr
          -136 188 -23 callgsubr
          endchar
        </CharString>
        <CharString name="doubledanda">
          -92 21 -21 741 -20 hstem
          89 462 vstem
          219 741 rmoveto
          410 callgsubr
          124 hmoveto
          410 callgsubr
          endchar
        </CharString>
        <CharString name="dvA">
          209 53 callgsubr
          hstemhm
          383 95 hintmask 11011010
          251 456 rmoveto
          -54 callgsubr
          hintmask 11101010
          398 callgsubr
          122 hlineto
          14 88 rlineto
          -226 28 callgsubr
          hintmask 11010110
          -20 callgsubr
          endchar
        </CharString>
        <CharString name="dvAA">
          198 callgsubr
          hstemhm
          383 95 hintmask 11011010
          251 456 rmoveto
          -54 callgsubr
          hintmask 11101010
          3 21 1 20 -4 20 138 -1 rcurveline
          -54 -308 rlineto
          104 hlineto
          99 callsubr
          -527 28 callgsubr
          hintmask 11010110
          -20 callgsubr
          endchar
        </CharString>
        <CharString name="dvAI">
          30 538 callsubr
          161 86 hstemhm
          73 105 hintmask 10111000
          289 19 rmoveto
          79 callsubr
          hintmask 11011000
          154 -18 71 73 26 149 rrcurveto
          hintmask 10111000
          18 105 rlineto
          105 147 callgsubr
          -111 hlineto
          -90 226 -49 20 -138 1 rrcurveto
          -43 543 callgsubr
          44 hlineto
          95 28 -14 -147 69 hvcurveto
          -490 250 callsubr
          endchar
        </CharString>
        <CharString name="dvAU">
          198 callgsubr
          78 67 88 68 hstemhm
          383 95 hintmask 1110101110000000
          666 hmoveto
          99 callsubr
          -84 hlineto
          297 -101 281 callsubr
          106 15 -4 -83 97 hvcurveto
          -350 28 callgsubr
          hintmask 1101011110000000
          -20 callgsubr
          -41 hlineto
          -54 callgsubr
          hintmask 1110101110000000
          133 callsubr
          endchar
        </CharString>
        <CharString name="dvAbbreviationsign">
          -133 182 64 198 64 hstem
          74 341 vstem
          274 508 rmoveto
          -100 -80 -67 -96 -17 hvcurveto
          -95 -17 60 -68 99 hhcurveto
          98 78 67 95 17 hvcurveto
          97 17 -58 67 -97 hhcurveto
          -10 -64 rmoveto
          58 33 -42 -58 -10 hvcurveto
          -58 -10 -48 -40 -58 hhcurveto
          -61 -36 41 58 10 hvcurveto
          58 10 51 41 61 hhcurveto
          endchar
        </CharString>
        <CharString name="dvAcandra">
          209 53 callgsubr
          86 79 hstemhm
          383 95 hintmask 11011011
          251 456 rmoveto
          -54 callgsubr
          hintmask 11101011
          398 callgsubr
          122 hlineto
          14 88 rlineto
          -226 28 callgsubr
          hintmask 11010111
          -20 callgsubr
          773 565 62 callgsubr
          endchar
        </CharString>
        <CharString name="dvAnusvara">
          -621 829 132 hstem
          -126 133 vstem
          7 895 rmoveto
          37 6 -23 29 -39 hhcurveto
          -37 -34 -29 -37 -6 492 callsubr
        </CharString>
        <CharString name="dvAnusvara.amI">
          -621 829 132 hstem
          58 136 vstem
          193 895 rmoveto
          37 6 -24 603 callsubr
          -6 24 -29 37 hhcurveto
          38 34 29 37 7 hvcurveto
          endchar
        </CharString>
        <CharString name="dvAvagraha">
          -39 57 89 437 89 hstem
          159 107 vstem
          281 57 rmoveto
          98 62 55 75 13 hvcurveto
          29 165 -235 76 18 102 rrcurveto
          44 8 42 9 35 hhcurveto
          184 360 callsubr
          -211 hlineto
          -87 -75 -37 -90 -16 hvcurveto
          -30 -167 236 -76 -18 -100 rrcurveto
          -32 -5 -28 -24 -46 hhcurveto
          -239 hlineto
          -16 -89 rlineto
          endchar
        </CharString>
        <CharString name="dvB">
          476 callsubr
          565 324 rmoveto
          116 19 -65 122 -171 -23 callsubr
          164 105 112 131 21 hvcurveto
          -222 165 -58 callgsubr
          282 163 -91 callgsubr
          -600 -105 callgsubr
          259 -497 -75 callgsubr
          endchar
        </CharString>
        <CharString name="dvBA">
          68 21 -21 82 76 333 70 91 88 hstem
          54 92 vstem
          526 hmoveto
          32 callsubr
          -736 -105 callgsubr
          513 hlineto
          154 callgsubr
          -140 -115 -90 -144 -25 hvcurveto
          171 callsubr
          -12 callgsubr
          endchar
        </CharString>
        <CharString name="dvBH">
          -96 89 511 callgsubr
          202 90 hstem
          125 526 callsubr
          vstem
          229 178 -40 callgsubr
          199 hlineto
          15 86 rlineto
          -199 hlineto
          12 71 rlineto
          -56 callsubr
          123 80 78 135 24 hvcurveto
          endchar
        </CharString>
        <CharString name="dvBHA">
          190 369 callsubr
          -81 90 hstemhm
          125 526 callsubr
          hintmask 11110010
          229 178 -40 callgsubr
          151 hlineto
          -65 -371 rlineto
          105 hlineto
          116 404 callgsubr
          -50 -283 rlineto
          -151 458 callsubr
          hintmask 11101110
          -56 callsubr
          hintmask 11110010
          -62 callgsubr
          endchar
        </CharString>
        <CharString name="dvBH_LA">
          801 57 92 -60 89 85 139 -139 557 callsubr
          -81 90 hstemhm
          125 526 callsubr
          75 107 242 59 -59 82 247 108 hintmask 0100100100110010
          229 178 -40 callgsubr
          129 hlineto
          582 callgsubr
          hintmask 1000001000110110
          -91 callsubr
          hintmask 1001000000110110
          -2 -18 rlineto
          88 hlineto
          2 18 rlineto
          hintmask 1000001000110010
          -90 callgsubr
          83 callsubr
          21 117 -44 83 -79 27 rrcurveto
          hintmask 1010010100111010
          194 callgsubr
          -885 -105 callgsubr
          550 157 callgsubr
          hintmask 0100100011110010
          -71 -65 -27 -53 -46 hvcurveto
          -165 hlineto
          12 71 rlineto
          -56 callsubr
          hintmask 0100100100110010
          -62 callgsubr
          endchar
        </CharString>
        <CharString name="dvBH_NA">
          705 477 callsubr
          -81 90 hstemhm
          49 934 -858 526 callsubr
          81 413 hintmask 0101010001000000
          229 178 -40 callgsubr
          137 582 callsubr
          rrcurveto
          hintmask 0010110001100000
          -119 -20 78 -86 122 120 callgsubr
          175 hlineto
          hintmask 1000010001000000
          -74 -414 537 callgsubr
          121 -42 callgsubr
          -764 -105 callgsubr
          538 hlineto
          hintmask 0010110001000000
          347 callgsubr
          -321 hlineto
          hintmask 0011001011000000
          -61 -54 -15 -30 -44 hvcurveto
          -195 401 callsubr
          -116 -79 -74 -105 -17 hvcurveto
          122 callgsubr
          -1 13 1 12 2 11 rrcurveto
          58 9 40 56 callgsubr
          -84 hlineto
          -115 -99 -63 -120 -22 hvcurveto
          hintmask 0100110100000000
          -111 -19 67 -74 117 hhcurveto
          hintmask 0101010001000000
          -62 callgsubr
          hintmask 0010110001000000
          225 hmoveto
          66 11 426 callsubr
          12 hvcurveto
          endchar
        </CharString>
        <CharString name="dvBH_R">
          -102 110 87 179 85 198 90 hstem
          123 102 168 95 vstem
          232 197 189 callsubr
          213 125 rmoveto
          9 54 rlineto
          202 hlineto
          15 85 rlineto
          -202 hlineto
          12 67 rlineto
          125 callgsubr
          537 callsubr
          -137 -400 rmoveto
          316 269 17 98 -450 -367 rlineto
          endchar
        </CharString>
        <CharString name="dvBH_RA">
          211 21 -21 110 87 179 85 191 593 callsubr
          hintmask 11110010
          232 197 189 callsubr
          213 125 rmoveto
          9 54 rlineto
          180 hlineto
          -19 -106 -424 -348 536 callgsubr
          -30 -172 rlineto
          471 callsubr
          595 callsubr
          hintmask 11101110
          125 callgsubr
          hintmask 11110010
          537 callsubr
          endchar
        </CharString>
        <CharString name="dvBH_R_YA">
          631 525 callgsubr
          -81 87 179 81 195 593 callsubr
          82 104 hintmask 1011100110000000
          232 197 rmoveto
          -55 -35 587 callgsubr
          10 51 32 61 hhcurveto
          86 hlineto
          -11 -60 rlineto
          -74 -13 -41 -45 -63 hhcurveto
          213 125 rmoveto
          9 54 rlineto
          121 hlineto
          -9 -50 2 -46 13 -39 -390 -319 rcurveline
          117 hlineto
          hintmask 1101100110000000
          304 259 rlineto
          -50 39 67 -28 86 22 callsubr
          -160 458 callsubr
          hintmask 1011011110000000
          128 23 -35 93 -132 hhcurveto
          -116 -79 -73 -104 -16 hvcurveto
          -2 -13 -1 -14 -13 vvcurveto
          102 hlineto
          13 0 10 2 12 vhcurveto
          57 9 39 35 50 hhcurveto
          59 18 -44 -69 279 callgsubr
          -86 hlineto
          -113 -99 -57 -110 -21 hvcurveto
          -107 -20 70 -73 115 hhcurveto
          hintmask 1011100110000000
          537 callsubr
          hintmask 1101100110000000
          389 -131 -5 callsubr
          endchar
        </CharString>
        <CharString name="dvBH_VA">
          570 569 callgsubr
          97 88 -81 90 hstemhm
          125 526 callsubr
          84 102 -87 87 hintmask 1100110011000000
          803 170 180 callgsubr
          hintmask 1011110010100000
          -574 8 -40 callgsubr
          132 455 callgsubr
          hintmask 1100110011000000
          47 callgsubr
          hintmask 1011101111000000
          -85 -75 -36 -62 -48 hvcurveto
          -162 hlineto
          12 71 rlineto
          -56 callsubr
          hintmask 1011110010100000
          -62 callgsubr
          endchar
        </CharString>
        <CharString name="dvBH_YA">
          631 442 callsubr
          -75 88 180 86 195 88 -81 90 hstemhm
          125 526 callsubr
          81 104 hintmask 1101100110000000
          229 178 -35 callgsubr
          hintmask 1011100110000000
          605 13 -5 callsubr
          hintmask 1101100110000000
          -390 111 rmoveto
          12 69 rlineto
          119 hlineto
          hintmask 1011100110000000
          -166 -27 91 -102 165 22 callsubr
          -158 458 callsubr
          hintmask 1101011110000000
          -56 callsubr
          hintmask 1101100110000000
          -62 callgsubr
          endchar
        </CharString>
        <CharString name="dvB_BA">
          493 21 -21 81 74 -73 76 331 73 -71 70 91 88 hstemhm
          53 87 345 87 hintmask 11010111
          343 489 -58 callgsubr
          609 -489 299 callgsubr
          -1162 -105 callgsubr
          939 hlineto
          hintmask 11001111
          154 callgsubr
          -89 -79 -36 -64 -52 hvcurveto
          hintmask 11010111
          59 -31 -64 42 -101 -23 callsubr
          99 77 41 61 51 hvcurveto
          hintmask 10110111
          -63 33 66 -38 83 160 callsubr
          hintmask 11010111
          -566 155 -75 callgsubr
          hintmask 10101111
          432 3 -8 callsubr
          57 333 -17 callgsubr
          endchar
        </CharString>
        <CharString name="dvB_BHA">
          609 21 -21 81 74 -66 511 callgsubr
          32 535 callsubr
          345 77 249 97 hintmask 1011110101000000
          648 178 rmoveto
          -55 -35 37 59 11 253 callsubr
          63 hhcurveto
          82 254 callgsubr
          183 callgsubr
          214 276 callgsubr
          152 hlineto
          -65 112 callsubr
          123 434 callsubr
          -152 hlineto
          13 71 rlineto
          hintmask 1101101101000000
          106 callgsubr
          hintmask 1101110111000000
          -24 -21 -3 -6 -19 hvcurveto
          -651 -105 callgsubr
          686 hlineto
          4 11 11 3 12 78 callgsubr
          -85 hlineto
          -53 -51 -14 -27 -40 hvcurveto
          81 -21 -68 65 -125 -23 callsubr
          88 72 33 50 50 hvcurveto
          hintmask 1011110111000000
          -47 26 53 -28 71 hhcurveto
          hintmask 1011110101000000
          -62 callgsubr
          hintmask 1101110111000000
          -519 187 -57 callsubr
          endchar
        </CharString>
        <CharString name="dvB_BH_RA">
          631 -78 275 -176 -21 81 74 -45 87 179 85 28 535 callsubr
          345 76 -76 385.5 -57.5 95 hintmask 0110011011010000
          343 489 -57 callsubr
          hintmask 0101111011010000
          368 42 rmoveto
          -56 -34 587 callgsubr
          11 50 32 61 hhcurveto
          85 hlineto
          -10 -60 rlineto
          -74 -13 -42 -45 -62 hhcurveto
          57 455 rmoveto
          5 11 12 2 13 hhcurveto
          59 17 -44 -69 -12 hvcurveto
          -15 -85 rlineto
          -86 hlineto
          -56 -51 -14 -27 -41 hvcurveto
          hintmask 0110011011010000
          79 -22 -68 63 -123 -23 callsubr
          95 75 37 57 50 hvcurveto
          hintmask 0101011011010000
          -41 28 51 -24 67 hhcurveto
          hintmask 0101111010100000
          120 82 80 132 23 hvcurveto
          9 54 rlineto
          179 hlineto
          -19 -107 rlineto
          hintmask 1000011010100000
          -423 -347 536 callgsubr
          rlineto
          hintmask 0110111011010000
          -30 -172 rlineto
          95 402 callsubr
          -223 hlineto
          -49 -279 rlineto
          -179 hlineto
          12 67 rlineto
          hintmask 0110010111010000
          128 22 -34 93 -132 hhcurveto
          hintmask 0110011011010000
          -24 -22 -3 -6 -19 hvcurveto
          -652 427 callsubr
        </CharString>
        <CharString name="dvB_DA">
          416 -21 317 -215 74 -66 84 288 90 -62 175 callsubr
          101 hintmask 01001111
          343 489 -57 callsubr
          824 497 -91 callgsubr
          -1084 -105 callgsubr
          844 hlineto
          hintmask 01010111
          -18 -101 rlineto
          -62 hlineto
          -97 -88 -30 -64 -58 hvcurveto
          hintmask 01001111
          61 -31 -65 44 -103 -23 callsubr
          97 76 39 59 51 hvcurveto
          hintmask 00110111
          -58 30 60 -32 72 hhcurveto
          68 58 27 42 36 hvcurveto
          hintmask 10010111
          -2 callgsubr
          hintmask 00110111
          -78 callsubr
          endchar
        </CharString>
        <CharString name="dvB_DHA">
          507 21 -21 81 73 -62 87 195 85 31 72 -10 -20 120 506 callgsubr
          53 87 376 428 callgsubr
          hintmask 1101101001110000
          392 callgsubr
          -24 -31 -40 -16 -46 hhcurveto
          913 498 -40 callsubr
          -225 hlineto
          -14 -87 456 callsubr
          hintmask 1011100101110000
          -115 -20 -96 -79 -112 hhcurveto
          69 callgsubr
          237 callgsubr
          hintmask 1101100011110000
          120 35 -57 77 -117 hhcurveto
          hintmask 1101101001110000
          563 callgsubr
          -613 -105 callgsubr
          517 143 callgsubr
          -54 -9 -65 -39 -23 -77 -8 -21 -11 -20 -15 -18 -220 218 534 callgsubr
          hintmask 1101011001110000
          12 71 rlineto
          hintmask 1101101001110000
          379 callgsubr
          86 74 35 59 52 hvcurveto
          hintmask 1011101001110000
          -54 29 66 -29 80 hhcurveto
          101 85 42 70 53 hvcurveto
          -36 -204 -95 callsubr
        </CharString>
        <CharString name="dvB_DH_VA">
          918 21 -21 81 73 -68 84 -79 88 195 39 -39 85 11 85 -65 72 -10 -20 120 506 callgsubr
          53 87 377 428 callgsubr
          hintmask 1100001001001110
          392 callgsubr
          -25 -31 -40 -15 -46 hhcurveto
          1202 498 259 callgsubr
          hintmask 1001011000101110
          243 callgsubr
          57 10 49 136 callsubr
          hintmask 1100001000011110
          120 35 -57 77 -118 hhcurveto
          hintmask 1100100101001110
          -22 388 callsubr
          -613 -105 callgsubr
          518 143 callgsubr
          -53 -8 -64 -36 -23 -75 -7 -22 -13 -23 -17 -21 -220 219 534 callgsubr
          hintmask 1100000011001110
          12 71 rlineto
          hintmask 1100000101001110
          379 callgsubr
          87 75 36 60 52 hvcurveto
          hintmask 1001001001001110
          -58 31 76 -28 93 hhcurveto
          110 83 40 71 54 hvcurveto
          hintmask 1010001001001110
          479 callsubr
          102 hlineto
          -225 170 25 callgsubr
          endchar
        </CharString>
        <CharString name="dvB_JA">
          631 21 -21 81 74 -33 92 192 90 -7 175 callsubr
          90 hintmask 11001111
          286 155 190 callgsubr
          1039 497 -91 callgsubr
          -1300 -105 callgsubr
          1073 hlineto
          hintmask 10110111
          336 callsubr
          -71 -13 -45 -47 -64 hhcurveto
          -59 -28 41 62 7 hvcurveto
          2 1 3 2 vvcurveto
          hintmask 11001111
          269 callgsubr
          357 callsubr
          hintmask 10110111
          285 callgsubr
          hintmask 11001111
          -861 -163 179 callgsubr
          endchar
        </CharString>
        <CharString name="dvB_JHA">
          700 340 callsubr
          -69 326 -245 74 91.5 252 callsubr
          144 76 -56 72 -12 -20 122 88 hstemhm
          55 89 713 98 -22 22 hintmask 0101101001101000
          290 155 rmoveto
          -92 -69 61 104 18 hvcurveto
          6 37 15 31 20 25 223 -219 rcurveline
          -24 -31 -40 -15 -50 hhcurveto
          404 171 rmoveto
          550 callsubr
          209 hlineto
          14 76 18 106 rlineto
          201 589 callsubr
          hintmask 0010001001101000
          46 -326 91 callsubr
          -1368 -62 callsubr
          841 hlineto
          -18 -106 rlineto
          -134 hlineto
          -94 -96 -39 -109 -18 hvcurveto
          -8 -39 -8 -45 -17 -47 -30 -37 rlinecurve
          hintmask 0100100101101000
          -222 219 rlineto
          27 37 45 14 47 hhcurveto
          27 24 -4 -7 22 hvcurveto
          hintmask 0100100011101000
          12 71 rlineto
          hintmask 0101010101110000
          7 -24 -31 5 -27 hhcurveto
          -164 -109 -99 -141 -25 hvcurveto
          -142 -24 94 -99 148 hhcurveto
          144 87 88 114 40 hvcurveto
          27 -21 38 -10 40 -1 rrcurveto
          96 hlineto
          83 36 -37 -59 -11 hvcurveto
          hintmask 0100100101110000
          -46 -8 -38 -40 -73 hhcurveto
          -81 -36 46 56 3 hvcurveto
          hintmask 1000100101101000
          -90 hlineto
          -44 -250 rlineto
          95 hlineto
          hintmask 0100100101101000
          26 143 rlineto
          -21 11 36 -52 97 hhcurveto
          114 68 66 85 14 hvcurveto
          9 46 -9 34 -18 25 168 -1 rcurveline
          hintmask 0010000101101000
          528 callsubr
          endchar
        </CharString>
        <CharString name="dvB_J_YA">
          1086 21 -21 81 74 -52 539 callsubr
          28 175 callsubr
          90 hintmask 1010011111000000
          1290 191 rmoveto
          169 callgsubr
          -99 -23 -85 -67 -104 hhcurveto
          hintmask 1100001111000000
          -947 298 179 callgsubr
          -57 -334 190 callgsubr
          1495 497 -40 callsubr
          -1755 -105 callgsubr
          1240 209 callgsubr
          hintmask 1001101111000000
          242 callsubr
          -71 -13 -45 -47 -64 hhcurveto
          -59 -28 41 62 7 hvcurveto
          2 1 3 2 vvcurveto
          hintmask 1100001111000000
          269 callgsubr
          357 callsubr
          hintmask 1001101111000000
          -40 23 44 -24 68 hhcurveto
          128 -1 84 348 callgsubr
          8 43 rcurveline
          503 callsubr
          hintmask 1010001111000000
          300 callgsubr
          54 47 hvcurveto
          -35 -196 rlineto
          106 60 callgsubr
          endchar
        </CharString>
        <CharString name="dvB_JxA">
          631 -83 132 -28 -21 81 74 -33 92 192 90 -7 175 callsubr
          90 -29 133 hintmask 1010101101000000
          679 -18 rmoveto
          -106 callgsubr
          -393 173 190 callgsubr
          1039 497 -91 callgsubr
          -1300 -105 callgsubr
          1073 hlineto
          336 callsubr
          hintmask 0101011110000000
          -71 -13 -45 -47 -64 hhcurveto
          -59 -28 41 62 7 hvcurveto
          2 1 3 2 vvcurveto
          269 callgsubr
          hintmask 0110011110000000
          357 callsubr
          hintmask 0101101110000000
          285 callgsubr
          hintmask 0110011110000000
          -861 -163 179 callgsubr
          endchar
        </CharString>
        <CharString name="dvB_LA">
          699 57 92 -68 74 108 -3 callsubr
          -251 175 callsubr
          85 519 callgsubr
          108 hintmask 1010100111101000
          1243 238 callgsubr
          -1368 -105 callgsubr
          1033 430 callsubr
          -66 -60 -27 -52 -44 hvcurveto
          hintmask 0100001111101000
          60 -31 -65 44 -102 -23 callsubr
          90 72 34 52 50 hvcurveto
          hintmask 1000010011101000
          -67 26 62 -43 97 473 callsubr
          -96 -38 64 90 16 hvcurveto
          82 14 50 60 81 hhcurveto
          82 24 -71 -93 -17 hvcurveto
          hintmask 0101000011011000
          -3 -18 rlineto
          88 hlineto
          3 18 rlineto
          hintmask 1000010011101000
          95 17 50 69 83 hhcurveto
          77 29 -62 -80 -14 hvcurveto
          -91 -16 -63 -63 -92 hhcurveto
          -9 -11 1 1 -8 hvcurveto
          -16 -92 rlineto
          -1 11 15 -1 10 hhcurveto
          hintmask 1010100111101000
          159 -2 102 102 24 142 rrcurveto
          hintmask 0100001111101000
          -958 -144 -75 callgsubr
          58 334 -58 callgsubr
          endchar
        </CharString>
        <CharString name="dvB_L_YA">
          1194 483 callsubr
          -68 74 -52 88 72 -3 callsubr
          -251 175 callsubr
          85 240 61 -61 83.5 238.5 105 hintmask 1010000011110110
          285 155 -75 callgsubr
          hintmask 1001101001111010
          1112 36 rmoveto
          -117 -60 73 110 21 hvcurveto
          2 1 1 2 vvcurveto
          125 7 73 65 22 121 15 80 rcurveline
          134 callsubr
          491 461 -91 callgsubr
          -1863 -105 callgsubr
          1347 hlineto
          -11 -62 -15 -87 -45 -46 -73 -16 rlinecurve
          -21 64 -61 34 -71 -2 -107 -3 -64 -64 -32 -68 rrcurveto
          -2 hlineto
          66 -9 -42 69 -103 hhcurveto
          -67 -60 -27 -52 -44 hvcurveto
          hintmask 1010000011110110
          60 -31 -65 44 -102 -23 callsubr
          92 73 35 54 50 hvcurveto
          hintmask 1100000100110110
          -69 26 61 -44 95 hhcurveto
          9 9 178 callsubr
          16 92 rlineto
          -1 -9 -9 -1 -8 hhcurveto
          -96 18 callsubr
          82 14 51 60 80 hhcurveto
          82 20 -70 -94 -13 hvcurveto
          hintmask 1010010000110110
          -3 -18 rlineto
          88 hlineto
          3 18 rlineto
          hintmask 1001000100110110
          13 95 54 66 83 3 50 2 38 -27 5 -42 rrcurveto
          -164 -30 83 -111 169 hhcurveto
          99 75 40 54 48 hvcurveto
          -35 203 callgsubr
          hintmask 1010000011110110
          -47 callgsubr
          -1423 -163 -58 callgsubr
          endchar
        </CharString>
        <CharString name="dvB_NA">
          612 0 502 -421 74 -52 515 callgsubr
          -13 175 callsubr
          406 hintmask 00110110
          576 302 rmoveto
          -96 callgsubr
          226 callsubr
          hintmask 01001111
          -233 187 -57 callsubr
          1022 497 -40 callsubr
          -1281 -105 callgsubr
          1054 hlineto
          hintmask 01010110
          182 callsubr
          -71 -62 -21 -40 -46 hvcurveto
          hintmask 01001110
          69 -28 -66 52 -112 -23 callsubr
          99 77 41 60 50 hvcurveto
          hintmask 00110111
          -49 31 57 -30 72 265 callsubr
        </CharString>
        <CharString name="dvB_R">
          476 callsubr
          625 -43 callsubr
          -600 -105 callgsubr
          539 -328 rmoveto
          116 19 -65 122 -171 -27 callsubr
          6 6 0 6 hhcurveto
          -163 -137 rlineto
          107 hlineto
          216 193 61 45 39 68 12 74 rlinecurve
          -222 165 -57 callsubr
          endchar
        </CharString>
        <CharString name="dvB_RA">
          67 21 -21 87 71 333 70 91 88 hstem
          54 92 vstem
          426 143 rmoveto
          11 10 10 11 9 11 -31 -175 rcurveline
          101 hlineto
          92 callsubr
          -736 -105 callgsubr
          513 hlineto
          -32 -185 rlineto
          53 -26 -55 41 -86 hhcurveto
          -140 -117 -90 -144 -25 hvcurveto
          94 callgsubr
        </CharString>
</ttFont>
